<?xml version="1.0" encoding="UTF-8" standalone="no"?>
<svg
   xmlns:dc="http://purl.org/dc/elements/1.1/"
   xmlns:cc="http://creativecommons.org/ns#"
   xmlns:rdf="http://www.w3.org/1999/02/22-rdf-syntax-ns#"
   xmlns:svg="http://www.w3.org/2000/svg"
   xmlns="http://www.w3.org/2000/svg"
   xmlns:sodipodi="http://sodipodi.sourceforge.net/DTD/sodipodi-0.dtd"
   xmlns:inkscape="http://www.inkscape.org/namespaces/inkscape"
   version="1.0"
   width="300.000000pt"
   height="300.000000pt"
   viewBox="0 0 300.000000 300.000000"
   preserveAspectRatio="xMidYMid meet"
   id="svg2"
   inkscape:version="0.92.5 (2060ec1f9f, 2020-04-08)"
   sodipodi:docname="bk.svg">
  <defs
     id="defs12">
    <filter
       style="color-interpolation-filters:sRGB;"
       inkscape:label="Drawing"
       id="filter18775">
      <feGaussianBlur
         in="SourceGraphic"
         stdDeviation="5.99659"
         result="blur1"
         id="feGaussianBlur18721" />
      <feConvolveMatrix
         in="blur1"
         targetX="1"
         targetY="1"
         order="3 3"
         kernelMatrix="0 250 0 250 -1010 250 0 250 0 "
         result="convolve1"
         id="feConvolveMatrix18723" />
      <feComposite
         in="convolve1"
         in2="convolve1"
         k1="1"
         k2="1"
         k4="0.04"
         operator="arithmetic"
         result="composite1"
         id="feComposite18725" />
      <feColorMatrix
         in="composite1"
         values="0 0 0 0 0 0 0 0 0 0 0 0 0 0 0 -0.2125 -0.7154 -0.0721 1 0 "
         result="color1"
         id="feColorMatrix18727" />
      <feGaussianBlur
         stdDeviation="0.61"
         result="blur2"
         id="feGaussianBlur18729" />
      <feColorMatrix
         values="1 0 0 0 0 0 1 0 0 0 0 0 1 0 0 0 0 0 2.7 -1 "
         result="color2"
         id="feColorMatrix18731" />
      <feFlood
         flood-color="rgb(255,255,255)"
         result="flood1"
         id="feFlood18733" />
      <feBlend
         in2="color2"
         mode="multiply"
         result="blend1"
         id="feBlend18735" />
      <feComponentTransfer
         in="blend1"
         result="component1"
         id="feComponentTransfer18743">
        <feFuncR
           type="discrete"
           tableValues="0 1 1 1"
           id="feFuncR18737" />
        <feFuncG
           type="discrete"
           tableValues="0 1 1 1"
           id="feFuncG18739" />
        <feFuncB
           type="discrete"
           tableValues="0 1 1 1"
           id="feFuncB18741" />
      </feComponentTransfer>
      <feGaussianBlur
         stdDeviation="0.61"
         result="blur3"
         id="feGaussianBlur18745" />
      <feColorMatrix
         in="blur3"
         values="0 0 0 0 0 0 0 0 0 0 0 0 0 0 0 -0.2125 -0.7154 -0.0721 1 0 "
         result="color3"
         id="feColorMatrix18747" />
      <feColorMatrix
         values="1 0 0 0 0 0 1 0 0 0 0 0 1 0 0 0 0 0 1.9 -0.5 "
         result="color4"
         id="feColorMatrix18749" />
      <feFlood
         flood-color="rgb(0,0,0)"
         result="flood2"
         id="feFlood18751" />
      <feComposite
         in="flood2"
         in2="color4"
         operator="in"
         result="composite2"
         id="feComposite18753" />
      <feComposite
         in="composite2"
         in2="composite2"
         operator="arithmetic"
         k2="1"
         result="composite3"
         id="feComposite18755" />
      <feOffset
         dx="0"
         dy="0"
         result="offset1"
         id="feOffset18757" />
      <feFlood
         in="color4"
         flood-color="rgb(66,66,66)"
         result="flood3"
         id="feFlood18759" />
      <feComposite
         in="flood3"
         in2="color4"
         operator="out"
         result="composite4"
         id="feComposite18761" />
      <feComposite
         in="composite4"
         in2="composite4"
         operator="arithmetic"
         k2="1"
         result="composite5"
         id="feComposite18763" />
      <feMerge
         result="merge1"
         id="feMerge18769">
        <feMergeNode
           in="composite5"
           id="feMergeNode18765" />
        <feMergeNode
           in="offset1"
           id="feMergeNode18767" />
      </feMerge>
      <feColorMatrix
         values="1 0 0 0 0 0 1 0 0 0 0 0 1 0 0 0 0 0 1.3 0 "
         result="color5"
         flood-opacity="0.56"
         id="feColorMatrix18771" />
      <feComposite
         in="color5"
         in2="SourceGraphic"
         operator="in"
         result="composite8"
         id="feComposite18773" />
    </filter>
  </defs>
  <sodipodi:namedview
     pagecolor="#ffffff"
     bordercolor="#666666"
     borderopacity="1"
     objecttolerance="10"
     gridtolerance="10"
     guidetolerance="10"
     inkscape:pageopacity="0"
     inkscape:pageshadow="2"
     inkscape:window-width="1618"
     inkscape:window-height="1002"
     id="namedview10"
     showgrid="false"
     inkscape:zoom="1.9037764"
     inkscape:cx="85.489271"
     inkscape:cy="147.24397"
     inkscape:window-x="6"
     inkscape:window-y="0"
     inkscape:window-maximized="0"
     inkscape:current-layer="svg2"
     inkscape:pagecheckerboard="true">
    <inkscape:grid
       type="xygrid"
       id="grid22745" />
  </sodipodi:namedview>
  <metadata
     id="metadata4">
Created by potrace 1.12, written by Peter Selinger 2001-2015
<rdf:RDF>
  <cc:Work
     rdf:about="">
    <dc:format>image/svg+xml</dc:format>
    <dc:type
       rdf:resource="http://purl.org/dc/dcmitype/StillImage" />
    <dc:title />
  </cc:Work>
</rdf:RDF>
</metadata>
  <path
     style="display:inline;fill:#ffffff;fill-opacity:1;stroke-width:2.98611474"
     d="M 116.36133,7.53125 C 116.21,27.776448 116.06942,48.021828 116.02148,68.267578 92.304533,46.804326 51.577494,44.119101 27.991556,67.198359 5.3995009,88.981226 4.1337335,127.32901 22.732422,152.01367 c 6.290877,8.9639 14.183092,16.67292 22.484375,23.76172 -11.932987,5.80248 -17.069011,21.99027 -9.826172,33.30859 4.960741,9.0024 14.840083,13.60787 22.513672,19.42969 2.590493,8.22333 -0.346093,16.91954 0.576172,25.36914 -0.122163,11.57626 4.666394,24.97832 16.574992,28.97463 16.304366,6.81477 34.223329,8.06207 51.435939,10.66901 32.93117,3.11934 67.18939,1.35439 98.28204,-10.64559 10.96497,-5.69465 17.38577,-18.46128 15.40039,-30.65039 0.16723,-10.22284 -1.42902,-23.76537 8.86719,-29.8457 10.12903,-6.71258 20.24111,-18.31417 16.81445,-31.34375 -1.46864,-6.38014 -8.33588,-10.30322 -11.62891,-14.54297 18.54528,-15.7756 34.10863,-37.31926 35.85156,-62.29102 2.14468,-26.046507 -14.09595,-53.726925 -39.97656,-60.841796 -21.63488,-7.092476 -47.33125,-2.043052 -63.5957,14.220704 0.0765,-20.514266 -0.0863,-41.028754 0.0254,-61.5429692 h -70.1582 l -0.008,0.999969 z"
     id="path843"
     inkscape:connector-curvature="0"
     sodipodi:nodetypes="cccccccccccccccccccccc" />
  <path
     style="display:inline;fill:#000000;stroke-width:2.98611474"
     d="m 108.11008,280.70947 c -9.067137,-1.58986 -25.665434,-5.17198 -32.03754,-8.9366 -6.189241,-3.65663 -6.865745,-6.34574 -6.865745,-27.29137 0,-22.39665 -0.303071,-23.38516 -8.398673,-27.39424 -13.410833,-6.64124 -20.039874,-15.2483 -17.933631,-23.28477 1.019705,-3.89071 4.608394,-7.7638 7.97487,-8.60685 12.471268,-6.84465 10.201059,-9.85483 -4.765648,-23.01622 C 28.288366,146.53061 20.538455,130.92988 20.450726,110.5798 20.311873,78.370488 49.853881,55.090974 80.985913,62.877231 c 18.629509,4.659318 28.316147,9.629857 38.432597,26.193596 l 7.07315,11.580933 0.0115,-41.006165 0.28899,-43.102233 h 24.88542 24.32996 V 57.95495 99.366531 l 9.51278,-13.753274 c 11.29315,-16.32734 24.0024,-24.673012 44.25229,-24.673012 22.68756,0 35.80346,10.668666 43.5879,23.947569 4.84367,8.262437 7.01702,15.753246 5.30223,31.464336 -2.07533,19.01476 -7.29602,28.22468 -27.4997,48.51275 -11.66842,10.93977 -15.71009,12.32094 -2.85505,21.02112 4.28505,3.40962 8.10076,7.02147 8.04739,10.93756 -0.17752,4.31079 -6.78557,13.35092 -15.39483,18.32834 -7.79069,4.50416 -8.75637,7.06039 -11.55275,30.58081 -0.11482,18.80964 3.64871,22.88789 -18.30867,31.29165 -18.0378,6.11427 -46.53994,7.24241 -62.01761,7.23068 -15.47767,-0.0117 -31.9043,-1.95574 -40.97143,-3.54559 z m 41.57771,-19.04175 c 14.2655,0 28.62519,0.3087 45.048,2.58642 11.29287,2.38165 17.57213,2.89917 19.12573,-0.97796 1.02365,-2.55454 1.27952,-8.4355 -4.14865,-9.69518 -13.5713,-3.14942 -27.77043,-6.32281 -57.3102,-5.8693 -35.88721,0.55096 -49.72775,2.92769 -59.67548,5.17045 -7.782857,1.75468 -7.968916,7.4044 -5.055361,10.76631 2.795661,3.22588 7.002135,1.74363 20.342031,0.55588 13.44543,-1.1971 27.40845,-2.53662 41.67393,-2.53662 z m -47.84814,-22.14078 8.56161,-7.08117 -8.91394,-3.26438 c -11.419072,-4.18178 -18.201587,-2.87962 -19.534924,3.75059 -2.902352,14.43229 6.600977,17.58376 19.887254,6.59496 z m 115.31338,1.41272 c 1.01871,-2.54226 1.57445,-5.47868 1.57445,-8.76706 0,-5.38899 -1.26819,-5.78465 -12.85407,-4.01047 -7.06974,1.0826 -12.77391,2.62385 -13.61046,3.42499 -1.97395,1.89031 14.98881,14.25632 19.55003,14.39375 1.91832,0.0576 4.32133,-2.49894 5.34005,-5.04121 z m -51.08858,-6.21302 10.50328,-5.35661 -9.58889,-4.74856 c -5.27386,-2.61169 -10.14932,-5.85922 -16.17626,-5.80927 -5.59349,0.0463 -24.23008,11.50449 -24.23008,11.50449 5.26591,2.95975 16.19331,7.95025 24.41155,9.77465 2.51743,-0.004 9.30364,-2.41855 15.0804,-5.3647 z m -50.72296,-22.44192 c 25.8548,-4.28109 42.16106,-4.87686 75.9944,0.43324 21.58115,4.96116 29.89613,6.91051 30.86246,3.74675 1.86381,-6.10193 1.71501,-8.1958 -9.58059,-13.05087 -10.21232,-2.78739 -31.53576,-8.0949 -59.44731,-7.72147 -26.29722,0.35183 -78.091088,5.20279 -73.784552,17.90206 2.517265,7.42297 12.656918,1.76643 35.955592,-1.30971 z M 83.281244,194.67631 c 2.15661,-3.85897 1.660468,-8.04684 -3.110957,-10.98691 -3.982455,-2.45393 -9.202236,-1.73115 -12.540346,2.81866 -3.644454,4.96735 -0.18515,12.02926 5.305819,13.04577 4.228707,0.78286 8.673167,-1.88513 10.345484,-4.87752 z M 233.33197,193.8821 c 1.02392,-2.5553 -0.41951,-7.12551 -1.97455,-8.61469 -4.42907,-4.24144 -13.9698,-1.20688 -15.18371,4.82937 -2.07014,10.29408 13.15443,13.77712 17.15826,3.78532 z m -112.9432,-10.30261 c 0,-3.05845 -3.11566,-6.77124 -7.57104,-6.80937 -7.5929,0.58739 -9.81848,9.96947 -4.45714,14.00163 3.82482,2.87657 12.02818,-0.7087 12.02818,-7.19226 z m 74.83912,1.69154 c 3.08349,-9.15856 -7.83898,-11.41648 -12.11452,-7.29834 -4.21349,4.05837 -2.65084,8.1119 0.0649,10.77923 3.24424,3.18637 10.90046,3.04336 12.04956,-3.48089 z m -33.70126,-3.12373 c 0.9875,-8.1299 -1.91039,-14.40281 -14.23376,-12.00632 -8.62763,1.67779 -7.49641,13.57913 -2.71166,16.96421 4.52439,3.2009 16.03549,2.53338 16.94542,-4.95789 z m -56.6728,-12.17795 c 11.58439,-2.44812 21.35752,-2.99126 23.58193,-3.51054 9.4067,-2.19585 3.40058,-30.57428 -8.00775,-47.96033 -11.9104,-18.15123 -23.952579,-26.292027 -45.11833,-25.570501 -12.095087,0.412312 -20.694647,7.167321 -25.2141,14.203131 -9.221789,14.3563 -6.130652,26.46358 10.231079,50.8678 9.052097,13.50157 14.424735,19.43361 19.734205,17.3832 2.573573,-0.99388 12.211741,-2.75397 24.792966,-5.41276 z M 79.853318,156.7872 c -4.581276,-3.41974 -11.223167,-9.87177 -14.17609,-15.1751 -10.312904,-18.52154 -4.885966,-36.74625 13.574134,-36.06181 4.005725,0.14851 15.00359,1.66769 22.748498,9.80755 10.68136,11.22607 14.64141,21.27826 16.03003,36.0398 1.1056,11.75295 -6.54964,9.47493 -10.01726,-3.5547 -4.95453,-18.6167 -28.305232,-36.1114 -32.517106,-22.78866 -1.700765,5.37976 -0.304997,13.88754 9.070897,24.11375 10.66977,11.63742 11.422374,19.66361 -4.713103,7.61917 z m 4.610691,-12.02773 c -3.690216,-2.68204 -2.933862,-5.19746 0.85863,-2.87746 2.989684,-0.0246 7.059351,-1.49321 7.192214,-4.42802 0.334256,-7.38347 6.783164,-5.10265 7.206367,2.92218 0.75666,14.3478 -7.215908,10.22762 -15.257211,4.3833 z m 149.645051,21.69434 c 22.68342,-24.74061 27.13127,-55.08115 9.96987,-68.008486 -19.12749,-14.408339 -55.60943,0.611919 -65.78284,25.702316 -16.01661,39.50133 -10.45014,42.9501 12.33861,45.94272 11.20935,1.472 22.5239,3.14819 25.04135,4.51335 6.72008,1.96075 7.81129,3.43514 18.43301,-8.1499 z m -21.48445,-6.36556 c 0,-1.4104 2.05972,-4.20141 4.57716,-6.20218 7.10745,-5.64879 6.96741,-11.6393 -3.05146,-5.84436 -2.65895,1.53795 -9.0327,6.09005 -9.29494,-6.64944 -0.18065,-8.77694 2.59292,-8.82511 6.33182,-3.91111 6.28448,8.25964 15.99821,4.85158 15.84557,-7.05018 -0.31852,-24.8382 -22.78205,-5.54293 -30.03866,17.65151 -2.00427,6.40636 -4.71892,11.64794 -6.03252,11.64794 -5.04896,0 -5.7191,-5.91775 -2.3658,-20.89133 2.43051,-10.85304 6.48398,-18.41296 13.44883,-25.08279 10.96276,-10.49838 20.7326,-12.06049 31.26113,-4.9984 13.19688,8.8519 6.54351,35.60317 -6.16401,46.53698 -12.64698,10.88172 -14.51712,8.03232 -14.51712,4.79336 z m -55.39055,-6.59741 c 1.866,-6.83329 -6.02712,-12.86025 -11.11809,-7.98495 -2.13773,2.04718 -3.13516,6.80738 -0.7527,11.07048 3.96788,7.09998 9.44921,5.78241 11.87079,-3.08553 z m 0.38724,-22.81799 c 6.09685,-8.07105 3.33599,-13.09217 -0.53295,-16.81085 -9.3659,-9.0021 -23.00104,5.54582 -14.52539,15.32573 4.69451,5.41694 9.11226,7.17931 15.05834,1.48512 z M 41.760142,107.99248 c 0.872865,-2.8178 -4.027651,-8.277801 -6.869275,-8.277801 -2.830624,0 -6.744981,4.070521 -6.744981,7.659961 0,7.12148 11.018675,8.99696 13.614256,0.61784 z m 230.790268,0.29763 c 2.4772,-5.01332 -1.96843,-10.256733 -5.43088,-10.40619 -9.19195,-0.396753 -10.75591,8.68466 -6.5835,12.68036 2.96709,2.8414 10.67483,3.37848 12.01438,-2.27417 z M 166.3319,89.078467 c 1.63555,-15.263703 -5.03072,-20.459787 -14.51656,-20.721797 -7.5789,0.0065 -10.73864,1.76707 -13.50738,8.262939 -2.6807,6.01361 0.90515,7.309541 8.29624,2.58922 5.04754,-3.223611 10.00746,-1.066065 11.03685,2.634357 2.18072,7.839234 -5.49327,13.274648 -11.63667,7.423336 -4.90451,-4.671315 -9.67725,-4.385803 -8.28074,2.479853 1.13913,5.600401 7.25993,9.194295 15.28816,8.948315 6.31726,-0.19356 12.49114,-4.669874 13.3201,-11.616223 z m -65.49496,-6.4983 c 0.72591,-4.872519 -3.887961,-7.593099 -8.346257,-7.593099 -6.271786,0 -7.681023,6.230195 -4.559997,11.066206 3.200431,4.959049 11.896815,3.302545 12.906254,-3.473107 z m -35.961393,1.94132 c 2.903796,-6.797445 -1.891389,-14.104574 -8.256633,-13.988573 -9.493037,0.173005 -12.119359,8.443158 -8.599899,15.070862 2.869691,5.404081 14.273634,4.963977 16.856532,-1.082289 z M 217.06466,80.56943 c 0,-3.896248 -3.70064,-6.36839 -7.76922,-6.36839 -4.06859,0 -6.93607,2.996161 -6.93607,6.892407 0,3.896248 3.14522,7.416425 7.21379,7.416425 4.06859,0 7.4915,-4.044196 7.4915,-7.940442 z m 34.20746,5.456816 c 3.61549,-4.546336 2.39261,-13.437717 -3.86508,-15.771045 -6.79425,-2.540737 -15.15207,3.816165 -12.48284,12.742936 1.59004,5.317561 12.06893,8.408794 16.34792,3.028109 z M 157.26756,54.952122 c 11.167,8.851771 13.74031,-0.653832 6.16437,-6.772746 -6.24328,-5.042541 -6.88499,-6.069362 -1.87849,-9.575154 2.91474,-2.041025 5.26142,-6.343352 5.77443,-8.11008 2.61617,-5.619979 -4.1493,-8.360887 -12.45182,1.390693 -3.23452,2.922183 -4.436,3.0681 -6.09538,1.325938 -1.65389,-1.736408 -1.94339,-2.247257 -6.52902,-5.748806 -6.35838,-4.855177 -11.27427,2.452352 -3.10319,9.180606 7.3992,6.09269 3.26414,8.48333 -1.28132,12.117088 -7.64939,7.986162 -2.67984,14.212315 6.67028,6.576831 5.61171,-6.278332 7.25973,-6.279512 12.73007,-0.38437 z"
     id="path842"
     inkscape:connector-curvature="0"
     sodipodi:nodetypes="zcssscsssscccccccsssscccscczzsccsssssscsssccscccccssscccssccscssssssscssccsccssccsscscsssssscssssssscssssssssscssccsssssscssscccccsscscssccscccccssssccsscsssssssssscsscccsccssccccc" />
</svg>
