<?xml version="1.0" encoding="UTF-8" standalone="no"?>
<svg
   xmlns:dc="http://purl.org/dc/elements/1.1/"
   xmlns:cc="http://creativecommons.org/ns#"
   xmlns:rdf="http://www.w3.org/1999/02/22-rdf-syntax-ns#"
   xmlns:svg="http://www.w3.org/2000/svg"
   xmlns="http://www.w3.org/2000/svg"
   xmlns:sodipodi="http://sodipodi.sourceforge.net/DTD/sodipodi-0.dtd"
   xmlns:inkscape="http://www.inkscape.org/namespaces/inkscape"
   version="1.0"
   width="300.000000pt"
   height="300.000000pt"
   viewBox="0 0 300.000000 300.000000"
   preserveAspectRatio="xMidYMid meet"
   id="svg2"
   inkscape:version="0.92.5 (2060ec1f9f, 2020-04-08)"
   sodipodi:docname="bq.svg">
  <defs
     id="defs12">
    <filter
       style="color-interpolation-filters:sRGB;"
       inkscape:label="Drawing"
       id="filter18775">
      <feGaussianBlur
         in="SourceGraphic"
         stdDeviation="5.99659"
         result="blur1"
         id="feGaussianBlur18721" />
      <feConvolveMatrix
         in="blur1"
         targetX="1"
         targetY="1"
         order="3 3"
         kernelMatrix="0 250 0 250 -1010 250 0 250 0 "
         result="convolve1"
         id="feConvolveMatrix18723" />
      <feComposite
         in="convolve1"
         in2="convolve1"
         k1="1"
         k2="1"
         k4="0.04"
         operator="arithmetic"
         result="composite1"
         id="feComposite18725" />
      <feColorMatrix
         in="composite1"
         values="0 0 0 0 0 0 0 0 0 0 0 0 0 0 0 -0.2125 -0.7154 -0.0721 1 0 "
         result="color1"
         id="feColorMatrix18727" />
      <feGaussianBlur
         stdDeviation="0.61"
         result="blur2"
         id="feGaussianBlur18729" />
      <feColorMatrix
         values="1 0 0 0 0 0 1 0 0 0 0 0 1 0 0 0 0 0 2.7 -1 "
         result="color2"
         id="feColorMatrix18731" />
      <feFlood
         flood-color="rgb(255,255,255)"
         result="flood1"
         id="feFlood18733" />
      <feBlend
         in2="color2"
         mode="multiply"
         result="blend1"
         id="feBlend18735" />
      <feComponentTransfer
         in="blend1"
         result="component1"
         id="feComponentTransfer18743">
        <feFuncR
           type="discrete"
           tableValues="0 1 1 1"
           id="feFuncR18737" />
        <feFuncG
           type="discrete"
           tableValues="0 1 1 1"
           id="feFuncG18739" />
        <feFuncB
           type="discrete"
           tableValues="0 1 1 1"
           id="feFuncB18741" />
      </feComponentTransfer>
      <feGaussianBlur
         stdDeviation="0.61"
         result="blur3"
         id="feGaussianBlur18745" />
      <feColorMatrix
         in="blur3"
         values="0 0 0 0 0 0 0 0 0 0 0 0 0 0 0 -0.2125 -0.7154 -0.0721 1 0 "
         result="color3"
         id="feColorMatrix18747" />
      <feColorMatrix
         values="1 0 0 0 0 0 1 0 0 0 0 0 1 0 0 0 0 0 1.9 -0.5 "
         result="color4"
         id="feColorMatrix18749" />
      <feFlood
         flood-color="rgb(0,0,0)"
         result="flood2"
         id="feFlood18751" />
      <feComposite
         in="flood2"
         in2="color4"
         operator="in"
         result="composite2"
         id="feComposite18753" />
      <feComposite
         in="composite2"
         in2="composite2"
         operator="arithmetic"
         k2="1"
         result="composite3"
         id="feComposite18755" />
      <feOffset
         dx="0"
         dy="0"
         result="offset1"
         id="feOffset18757" />
      <feFlood
         in="color4"
         flood-color="rgb(66,66,66)"
         result="flood3"
         id="feFlood18759" />
      <feComposite
         in="flood3"
         in2="color4"
         operator="out"
         result="composite4"
         id="feComposite18761" />
      <feComposite
         in="composite4"
         in2="composite4"
         operator="arithmetic"
         k2="1"
         result="composite5"
         id="feComposite18763" />
      <feMerge
         result="merge1"
         id="feMerge18769">
        <feMergeNode
           in="composite5"
           id="feMergeNode18765" />
        <feMergeNode
           in="offset1"
           id="feMergeNode18767" />
      </feMerge>
      <feColorMatrix
         values="1 0 0 0 0 0 1 0 0 0 0 0 1 0 0 0 0 0 1.3 0 "
         result="color5"
         flood-opacity="0.56"
         id="feColorMatrix18771" />
      <feComposite
         in="color5"
         in2="SourceGraphic"
         operator="in"
         result="composite8"
         id="feComposite18773" />
    </filter>
  </defs>
  <sodipodi:namedview
     pagecolor="#ffffff"
     bordercolor="#666666"
     borderopacity="1"
     objecttolerance="10"
     gridtolerance="10"
     guidetolerance="10"
     inkscape:pageopacity="0"
     inkscape:pageshadow="2"
     inkscape:window-width="1577"
     inkscape:window-height="1002"
     id="namedview10"
     showgrid="false"
     inkscape:zoom="1.4595703"
     inkscape:cx="54.266281"
     inkscape:cy="161.92034"
     inkscape:window-x="6"
     inkscape:window-y="0"
     inkscape:window-maximized="0"
     inkscape:current-layer="svg2"
     inkscape:pagecheckerboard="true">
    <inkscape:grid
       type="xygrid"
       id="grid22745" />
  </sodipodi:namedview>
  <metadata
     id="metadata4">
Created by potrace 1.12, written by Peter Selinger 2001-2015
<rdf:RDF>
  <cc:Work
     rdf:about="">
    <dc:format>image/svg+xml</dc:format>
    <dc:type
       rdf:resource="http://purl.org/dc/dcmitype/StillImage" />
    <dc:title />
  </cc:Work>
</rdf:RDF>
</metadata>
  <path
     style="display:inline;fill:#ffffff;fill-opacity:1;stroke-width:2.74024487"
     d="m 151.22266,9.09375 c -18.66382,0.2171819 -30.23109,26.424821 -16.93946,39.951172 5.27295,10.837025 0.0716,22.748306 0.676,34.209597 -1.47758,18.682391 -2.68176,37.363521 -4.4592,56.011101 -8.79747,-20.09379 -14.64948,-41.320946 -20.01172,-62.550776 2.56928,-9.126744 5.03246,-19.92598 -1.29883,-28.175782 -8.26973,-12.74481 -28.750548,-13.872984 -38.337713,-2.024148 -9.407638,10.130278 -7.72058,27.688677 3.488107,35.81907 6.660922,5.336334 6.735139,14.662561 9.630923,22.095986 3.59605,13.26854 5.699512,26.83045 6.845639,40.52901 C 80.261405,131.94108 67.63034,119.43439 61.506217,103.66994 61.865726,93.453026 59.071493,81.027985 48.375,77.007812 32.601019,69.407968 10.191984,82.730481 12.265625,100.94336 c 0.595917,10.26746 7.846151,19.989 17.775391,22.9668 13.271943,13.37339 20.103552,31.45736 30.148437,47 -1.984427,4.78996 -6.022955,8.83577 -5.802734,14.42382 -1.563903,17.57943 15.295773,30.33931 14.529297,47.86524 0.585222,8.96631 -7.318715,15.9279 -5.546875,25.00195 1.466273,11.78044 11.965637,20.80923 23.470703,22.28516 31.587816,8.2644 64.684136,7.99724 97.050816,6.35549 18.23394,-1.7334 37.39211,-4.41184 53.19528,-14.16018 8.54811,-8.71662 6.71589,-22.75279 1.24414,-32.58984 -3.87237,-15.65412 7.18095,-29.28381 12.51172,-43 2.76348,-8.81087 0.55968,-18.75142 -4.16211,-26.1836 5.72884,-9.47011 11.39897,-18.96254 16.57617,-28.76953 5.05091,-9.47854 12.23752,-17.94456 21.86328,-22.93164 10.13132,-7.46756 13.50451,-23.215453 5.25781,-33.285155 -8.20772,-11.83612 -27.69796,-14.949291 -37.54101,-3.416016 -6.81658,6.644765 -6.69703,16.796794 -8.04688,25.431641 -6.89462,14.50865 -20.05471,24.44563 -28.66406,37.81836 -1.60111,0.90185 0.42396,-7.73458 0.47852,-10.66406 2.44324,-16.64721 5.66143,-33.31077 11.91796,-48.875003 5.79223,-5.761634 12.93797,-11.611746 13.32227,-20.494141 2.13459,-14.879019 -11.66943,-29.936493 -26.88672,-27.628906 -12.87169,1.027265 -24.26892,14.063438 -20.62425,27.118458 1.70457,7.649309 2.51636,15.843148 -1.11362,23.056922 -4.46976,17.35764 -10.12382,34.74669 -17.34416,50.92032 -3.73868,-26.33695 -3.45634,-53.009135 -6.44336,-79.425778 -0.47413,-6.649906 3.93992,-11.794776 6.60938,-17.371094 5.54098,-14.369041 -5.10205,-33.0600386 -21.125,-33.2304686 -1.22915,-0.096649 -2.46205,-0.053624 -3.69336,-0.068359 z"
     id="path887"
     inkscape:connector-curvature="0"
     sodipodi:nodetypes="ccccccccccccccccccccccccccccccccccccccccc" />
  <path
     sodipodi:nodetypes="cssccsssssccsssccscsssscscscccccsccsssssscsscscscscccccsccssscccscssscscssc"
     inkscape:connector-curvature="0"
     id="path855"
     d="M 107.73327,274.13827 C 76.01076,269.691 68.509451,262.5271 77.187398,244.9664 c 3.065345,-6.20302 3.190774,-10.32298 0.669687,-21.997 -1.706152,-7.90044 -5.18125,-16.82786 -7.789902,-19.77972 -7.952243,-14.66478 -6.042024,-19.78545 -0.289931,-26.43664 4.130736,-4.7764 2.698722,-6.24537 -12.348118,-31.66074 C 43.946438,122.31891 39.233568,114.84842 31.6013,112.90958 22.090342,110.49349 18.332167,92.912965 30.940518,86.96171 41.992787,81.744939 52.5,90 50.670542,100.17554 c -1.786714,9.93779 1.88879,13.45274 21.834909,39.16582 12.659538,16.31976 24.371761,29.17169 26.027165,28.55984 C 108.82743,166.77738 94.98838,92.01606 85.301385,76.862518 72.290985,71.567211 73.372451,55.751655 80.9931,51.450845 c 14.682843,-8.286448 27.26525,4.603284 19.06254,20.642035 -1.939599,3.792497 2.0299,16.805677 11.99952,48.08707 7.33698,23.02101 15.66911,38.03389 17.10341,39.5348 1.43431,1.50093 3.17172,3.95761 5.32884,3.09139 2.98721,-1.19954 5.77112,-6.7059 7.63653,-34.00509 2.27042,-33.226442 3.1206,-39.966748 4.27876,-56.980259 1.5444,-18.349504 0.26577,-24.31857 -1.84376,-26.297111 -7.09721,-6.656518 -6.83236,-17.912908 -0.77189,-22.581881 5.55968,-4.283185 13.0467,-4.198686 18.43996,-0.169019 5.95266,4.447631 5.98664,16.583375 -0.11527,22.75983 -5.49385,5.560966 -2.61896,20.411402 -1.11986,40.954327 2.32703,26.532773 2.9041,78.075203 13.3282,76.558763 7.22727,-1.05138 31.6284,-71.995782 32.84516,-89.85435 -6.28229,-13.135688 -1.75253,-25.974417 11.45515,-24.334995 15.89293,1.972732 17.47914,21.156704 2.04044,28.684729 -3.20276,5.476953 -6.57648,14.070143 -10.8708,35.905156 -9.05722,46.05269 -5.38652,54.58757 -1.709,55.12942 4.30576,0.46964 20.89514,-23.03034 29.28598,-32.41635 16.48951,-19.80977 20.71595,-26.98108 19.1502,-33.97986 -1.33262,-12.846803 11.21057,-19.584096 18.45475,-15.455674 16.63312,9.479126 8.2086,23.175484 -0.007,26.157554 -6.78672,2.30133 -8.96087,5.43077 -24.88955,30.98504 -15.41022,26.52647 -18.06135,29.18625 -12.85936,33.72964 5.61941,4.90795 6.76406,12.81971 -1.32486,27.0867 -5.2633,9.28325 -6.40675,10.94601 -8.67754,27.65087 -1.25872,9.2597 3.48209,15.58896 4.59891,20.28811 3.17592,13.36298 -3.08398,16.22046 -30.07736,21.21556 -26.09816,4.82945 -60.90514,4.94092 -94.00165,0.30102 z m 46.34826,-17.20472 c 14.52918,-0.19846 27.44769,1.59208 40.66737,2.64181 17.28304,1.3724 24.31306,1.34935 23.31896,-3.42786 -0.80497,-3.86832 -2.02832,-6.37543 -6.02718,-7.18176 -38.48739,-7.76048 -57.4209,-6.38953 -93.12256,-4.28842 -22.45639,1.32159 -34.777017,7.02076 -30.871284,13.6339 1.315754,2.2278 7.97172,2.51575 22.416604,0.96977 11.29986,-1.20937 32.56827,-2.40844 43.61809,-2.34744 z m 64.06946,-27.89547 c 3.35951,-12.728 -3.44236,-12.97627 -15.31767,-9.25839 -11.55512,3.48167 -9.20061,4.79088 -2.44237,11.86129 10.88342,9.05675 14.89511,8.98839 17.76004,-2.6029 z m -113.18646,2.6567 c 9.18636,-9.8069 9.16294,-9.26161 -4.02794,-13.41672 -11.984456,-3.77509 -14.85574,0.95313 -11.969019,10.69646 2.540342,8.57422 4.885035,11.71537 15.996959,2.72026 z m 58.9033,-3.99314 9.48,-6.53983 -9.63118,-6.97547 c -9.94836,-7.20519 -9.09936,-8.11567 -19.39018,-1.2156 -5.036,3.86183 -11.03724,7.04365 -11.03462,8.16863 5.81955,4.18349 17.35637,12.5688 19.81568,11.86476 1.98252,0.14094 6.277,-2.20966 10.7603,-5.30249 z m -39.75878,-26.44827 c 19.75014,-3.78544 38.40786,-3.68091 59.05842,-0.89443 24.39371,3.29158 23.81073,7.42613 32.93804,5.66128 3.50943,-0.67858 12.37381,-8.28431 0.18567,-12.20587 -12.91034,-4.15395 -30.25321,-10.15176 -62.80696,-9.55777 -36.13661,-0.1504 -54.295557,7.37014 -65.561518,10.42293 -5.010982,1.35785 -6.834771,5.30622 -3.812191,9.11736 1.956424,2.46683 7.722929,3.44034 7.722929,3.44034 3.924609,-0.2235 13.36301,-2.35895 32.27557,-5.98384 z"
     style="display:inline;fill:#000000;fill-opacity:1;stroke-width:2.74024487" />
</svg>
