<?xml version="1.0" encoding="UTF-8" standalone="no"?>
<svg
   xmlns:dc="http://purl.org/dc/elements/1.1/"
   xmlns:cc="http://creativecommons.org/ns#"
   xmlns:rdf="http://www.w3.org/1999/02/22-rdf-syntax-ns#"
   xmlns:svg="http://www.w3.org/2000/svg"
   xmlns="http://www.w3.org/2000/svg"
   xmlns:sodipodi="http://sodipodi.sourceforge.net/DTD/sodipodi-0.dtd"
   xmlns:inkscape="http://www.inkscape.org/namespaces/inkscape"
   version="1.0"
   width="300.000000pt"
   height="300.000000pt"
   viewBox="0 0 300.000000 300.000000"
   preserveAspectRatio="xMidYMid meet"
   id="svg2"
   inkscape:version="0.92.5 (2060ec1f9f, 2020-04-08)"
   sodipodi:docname="wk.svg">
  <defs
     id="defs12">
    <filter
       style="color-interpolation-filters:sRGB;"
       inkscape:label="Drawing"
       id="filter18775">
      <feGaussianBlur
         in="SourceGraphic"
         stdDeviation="5.99659"
         result="blur1"
         id="feGaussianBlur18721" />
      <feConvolveMatrix
         in="blur1"
         targetX="1"
         targetY="1"
         order="3 3"
         kernelMatrix="0 250 0 250 -1010 250 0 250 0 "
         result="convolve1"
         id="feConvolveMatrix18723" />
      <feComposite
         in="convolve1"
         in2="convolve1"
         k1="1"
         k2="1"
         k4="0.04"
         operator="arithmetic"
         result="composite1"
         id="feComposite18725" />
      <feColorMatrix
         in="composite1"
         values="0 0 0 0 0 0 0 0 0 0 0 0 0 0 0 -0.2125 -0.7154 -0.0721 1 0 "
         result="color1"
         id="feColorMatrix18727" />
      <feGaussianBlur
         stdDeviation="0.61"
         result="blur2"
         id="feGaussianBlur18729" />
      <feColorMatrix
         values="1 0 0 0 0 0 1 0 0 0 0 0 1 0 0 0 0 0 2.7 -1 "
         result="color2"
         id="feColorMatrix18731" />
      <feFlood
         flood-color="rgb(255,255,255)"
         result="flood1"
         id="feFlood18733" />
      <feBlend
         in2="color2"
         mode="multiply"
         result="blend1"
         id="feBlend18735" />
      <feComponentTransfer
         in="blend1"
         result="component1"
         id="feComponentTransfer18743">
        <feFuncR
           type="discrete"
           tableValues="0 1 1 1"
           id="feFuncR18737" />
        <feFuncG
           type="discrete"
           tableValues="0 1 1 1"
           id="feFuncG18739" />
        <feFuncB
           type="discrete"
           tableValues="0 1 1 1"
           id="feFuncB18741" />
      </feComponentTransfer>
      <feGaussianBlur
         stdDeviation="0.61"
         result="blur3"
         id="feGaussianBlur18745" />
      <feColorMatrix
         in="blur3"
         values="0 0 0 0 0 0 0 0 0 0 0 0 0 0 0 -0.2125 -0.7154 -0.0721 1 0 "
         result="color3"
         id="feColorMatrix18747" />
      <feColorMatrix
         values="1 0 0 0 0 0 1 0 0 0 0 0 1 0 0 0 0 0 1.9 -0.5 "
         result="color4"
         id="feColorMatrix18749" />
      <feFlood
         flood-color="rgb(0,0,0)"
         result="flood2"
         id="feFlood18751" />
      <feComposite
         in="flood2"
         in2="color4"
         operator="in"
         result="composite2"
         id="feComposite18753" />
      <feComposite
         in="composite2"
         in2="composite2"
         operator="arithmetic"
         k2="1"
         result="composite3"
         id="feComposite18755" />
      <feOffset
         dx="0"
         dy="0"
         result="offset1"
         id="feOffset18757" />
      <feFlood
         in="color4"
         flood-color="rgb(66,66,66)"
         result="flood3"
         id="feFlood18759" />
      <feComposite
         in="flood3"
         in2="color4"
         operator="out"
         result="composite4"
         id="feComposite18761" />
      <feComposite
         in="composite4"
         in2="composite4"
         operator="arithmetic"
         k2="1"
         result="composite5"
         id="feComposite18763" />
      <feMerge
         result="merge1"
         id="feMerge18769">
        <feMergeNode
           in="composite5"
           id="feMergeNode18765" />
        <feMergeNode
           in="offset1"
           id="feMergeNode18767" />
      </feMerge>
      <feColorMatrix
         values="1 0 0 0 0 0 1 0 0 0 0 0 1 0 0 0 0 0 1.3 0 "
         result="color5"
         flood-opacity="0.56"
         id="feColorMatrix18771" />
      <feComposite
         in="color5"
         in2="SourceGraphic"
         operator="in"
         result="composite8"
         id="feComposite18773" />
    </filter>
  </defs>
  <sodipodi:namedview
     pagecolor="#ffffff"
     bordercolor="#666666"
     borderopacity="1"
     objecttolerance="10"
     gridtolerance="10"
     guidetolerance="10"
     inkscape:pageopacity="0"
     inkscape:pageshadow="2"
     inkscape:window-width="1591"
     inkscape:window-height="962"
     id="namedview10"
     showgrid="false"
     inkscape:zoom="1.0573713"
     inkscape:cx="-13.990661"
     inkscape:cy="112.94955"
     inkscape:window-x="-47"
     inkscape:window-y="18"
     inkscape:window-maximized="0"
     inkscape:current-layer="svg2"
     inkscape:pagecheckerboard="true">
    <inkscape:grid
       type="xygrid"
       id="grid842" />
  </sodipodi:namedview>
  <metadata
     id="metadata4">
Created by potrace 1.12, written by Peter Selinger 2001-2015
<rdf:RDF>
  <cc:Work
     rdf:about="">
    <dc:format>image/svg+xml</dc:format>
    <dc:type
       rdf:resource="http://purl.org/dc/dcmitype/StillImage" />
    <dc:title />
  </cc:Work>
</rdf:RDF>
</metadata>
  <path
     style="fill:#ffffff;fill-opacity:1;stroke-width:2.79716015"
     d="m 115.6543,8.65625 c -0.31977,14.592646 0.0728,29.237266 -0.6875,43.777344 -27.600461,-16.39964 -66.984747,-15.124832 -90.054691,8.654297 -18.045251,19.3684 -19.6064182,49.884769 -8.05664,72.953129 7.896233,20.19182 19.96699,38.50139 32.8125,55.74609 1.374452,9.48925 1.909084,19.82129 8.328125,27.52734 3.997463,8.10809 4.441302,18.65053 -1.867188,25.73633 -5.679101,11.52519 1.051097,24.9269 10.759766,31.86914 19.409785,16.10683 45.889908,18.85734 70.097148,20.71045 31.55887,1.34439 63.8967,-2.43277 93.26418,-14.42725 13.65872,-7.08431 24.47189,-24.09653 18.21875,-39.48046 -2.7357,-5.18669 -8.06028,-10.32767 -4.94898,-16.6688 3.56798,-12.93624 10.52391,-24.64474 13.73804,-37.74527 6.10411,-13.82393 17.77035,-24.40604 23.06603,-38.70818 11.54295,-24.81932 15.78464,-55.776141 1.40663,-80.397285 -12.85908,-21.623306 -40.53459,-30.295127 -64.41772,-25.646242 -11.96076,2.042704 -23.35728,6.701608 -33.82837,12.755617 -0.64186,-16.035227 0.66458,-32.097051 -0.44141,-48.1210938 -22.46224,-0.00934 -44.92448,-0.02393 -67.38672,-0.033203 l -0.001,0.9999992 z"
     id="path18911"
     inkscape:connector-curvature="0"
     sodipodi:nodetypes="ccccccccccccccccccccc" />
  <path
     sodipodi:nodetypes="csscssscssccscccsssscssscscccsscsssssssccccccsscccsscsccsssssscssssssccsscscscccsssssssssssssssssssssssccsccssccscssccccccssssccsssssscscsccssccsssssccscccssccscccccscccccccssscssccccc"
     inkscape:connector-curvature="0"
     id="path843"
     d="m 119.31643,283.56168 c -36.875662,-3.7731 -64.535835,-24.69874 -51.578458,-39.0205 4.043964,-4.46977 4.624948,-8.17264 3.063783,-19.52684 -1.059564,-7.7061 -3.704907,-15.48748 -5.878542,-17.29194 -2.173632,-1.80446 -3.95206,-7.96717 -3.95206,-13.69491 0,-6.94306 -1.909348,-12.14251 -5.728615,-15.59986 -9.05342,-8.19554 -24.42669,-35.82559 -30.706749,-53.9999 -5.0579,-14.6374 -7.050255,-22.02247 -1.574339,-39.756659 3.294727,-10.670072 9.192077,-15.964488 13.975932,-20.302598 18.557343,-16.828227 55.912563,-15.861097 76.509188,-0.146884 5.18144,3.953181 9.95774,6.650495 10.61403,5.994027 0.65628,-0.656465 1.32012,-8.022263 1.47518,-16.36844 0.15515,-8.346178 0.0919,-18.269704 0.58555,-24.06872 l 0.0213,-12.112439 24.57091,0.02465 h 22.12832 l 0.0427,23.079805 c 0.0635,34.33227 -0.87482,33.799978 15.82921,23.837235 21.11822,-12.59549 44.67516,-16.844835 64.31703,-7.924289 13.18053,5.98607 20.06774,13.465436 25.52111,31.590676 6.71775,22.327596 -4.20419,58.399856 -25.60577,84.569186 -5.16291,6.31308 -7.64573,14.56649 -7.64573,17.50706 0,2.94055 -5.05656,11.95226 -8.133,20.37141 -6.68104,18.28369 -7.03592,26.09304 -1.39838,30.77308 5.84223,4.84997 5.23244,14.71168 -1.43384,23.18887 -6.98723,8.88529 -25.02253,14.91988 -55.82654,18.67949 -25.44267,3.10526 -30.61374,3.12259 -59.19237,0.19834 z m 82.19233,-14.5621 c 15.58431,-8.03562 -7.21318,-14.64388 -51.04102,-14.79512 -27.97499,-0.0966 -36.86145,0.85747 -44.47879,4.77507 -11.976758,6.15964 -12.027442,6.15369 -10.951906,-1.28744 1.415831,-9.7954 20.173336,-14.13044 60.082926,-13.88575 40.21809,0.24659 54.07992,4.27848 54.07992,15.72982 0,8.1541 4.38924,9.06787 13.36154,2.78167 8.33616,-5.84051 8.76112,-11.82931 -2.01963,-18.86459 -24.13819,-15.75206 -95.8428,-15.20028 -120.724276,-6.24173 -9.822334,3.53652 -24.466193,8.41084 -24.466193,16.60271 0,8.71807 26.362569,16.82433 51.343879,18.42209 30.03189,1.92077 67.99657,0.27836 74.81355,-3.23673 z M 97.310714,214.21869 c 0.01953,-3.7221 -12.843081,-4.93874 -14.788156,-1.39877 -0.634071,1.15399 -1.772602,2.83086 -0.350304,8.08608 3.374447,12.45008 6.121414,11.45828 9.744805,4.9658 2.956374,-4.48589 5.383523,-9.72979 5.393655,-11.65311 z M 221.52308,213.967 c -3.77824,-10.96805 -22.60721,-17.10544 -47.73838,-19.94212 -16.80617,-1.89699 -18.30388,0.32976 -13.98519,3.3332 14.91702,10.37405 14.62787,10.00158 10.77063,13.87474 -3.03502,3.04753 -4.93347,2.05262 -7.21714,-1.99587 -6.73535,-9.5006 -11.20819,-6.88549 -18.22526,-2.72104 -5.27482,3.13048 5.99998,10.63119 11.88239,7.14842 4.25132,-2.51705 6.64166,0.8278 3.90521,3.34252 -1.27713,3.32909 2.3133,4.43617 18.45512,5.69045 11.0224,0.85647 22.55783,2.43242 25.63427,3.50207 7.01827,2.77403 6.17874,1.22547 -2.79676,-5.15879 -9.16367,-7.75842 -7.98839,-12.74088 4.89433,-15.77812 8.24912,-1.94482 9.27958,4.44246 2.74941,6.28659 -4.08905,1.15474 -5.95128,2.25026 1.44575,6.74942 4.27993,2.60321 5.51346,5.26536 3.49596,6.84402 -3.76983,2.94981 0.31567,5.24604 4.64655,0.91394 3.55432,-3.55532 4.04398,-6.3971 2.08311,-12.08943 z m -74.94561,5.26252 c 0.20932,-2.01105 -3.27826,-2.04734 -7.122,-3.85683 -10.28053,-4.83972 -11.22572,-8.83613 -0.46856,-13.52902 16.04542,-6.99992 16.20576,-10.70849 -3.68426,-8.01896 -23.8466,3.22455 -49.362124,10.65791 -40.770278,10.72991 10.631438,0.0891 14.377188,5.79979 11.128308,11.87209 -1.5059,2.81458 -9.968294,13.06352 -9.04569,12.79001 31.58456,-9.36342 49.57562,-6.04788 49.96248,-9.9872 z M 93.133993,194.30383 c 7.691107,-2.87372 24.493097,-7.26453 37.216107,-8.45543 17.1538,-1.60563 27.23244,-3.35936 52.50976,0.79984 15.83006,2.60472 31.3552,6.94115 35.77678,9.22827 7.18813,3.71817 8.51001,3.68751 12.48601,-0.28959 3.89633,-3.89743 3.93984,-4.90597 0.3515,-8.14766 -9.49937,-8.58165 -66.00036,-19.72006 -97.26488,-14.79614 -21.45316,3.3787 -54.669084,10.25793 -60.324829,15.73064 -2.728357,2.64007 -0.376329,11.15861 3.080355,11.15638 1.201945,-7.8e-4 8.478081,-2.35262 16.169197,-5.22631 z M 74.954995,171.53506 c 0,-2.90722 -3.750589,-8.41493 -7.279515,-13.12327 C 56.457299,143.44434 49.002,130.1146 48.091102,112.62928 47.650983,104.18091 48.9371,96.678105 57.977109,88.738657 c 8.616346,-7.567371 20.627051,-8.166531 24.201367,-8.185313 6.101931,-0.03207 20.714754,3.409225 24.733754,4.477613 6.37184,1.693853 9.73031,3.290963 12.85071,5.024498 6.73735,3.742928 5.72414,-0.945788 5.02921,-5.551344 C 123.62929,76.797442 93.227768,65.361026 73.729675,65.29548 43.919298,65.195268 25.987402,93.312944 36.112893,124.27957 48.334296,161.6561 74.954995,194.04298 74.954995,171.53506 Z M 248.95543,158.33937 c 29.98141,-45.26858 22.774,-88.739859 -15.74955,-94.993121 -14.07307,-2.284383 -57.56722,14.251251 -57.56722,21.885938 0,6.290802 2.73735,6.463644 15.8136,0.998506 5.52224,-2.307981 17.67323,-5.891901 27.34709,-5.891901 16.20722,0 20.15796,2.643699 26.52234,9.73768 4.28463,4.775807 8.23423,11.636438 5.98251,32.522398 -1.28139,11.88558 -9.77463,30.15357 -19.4403,38.90334 -6.63571,6.00691 -7.3806,10.23472 -2.63894,14.97773 4.41628,4.41752 5.37255,3.53831 19.73047,-18.14057 z m -144.88906,8.99005 c 7.55102,-2.29133 17.9645,-3.60715 23.07334,-4.16605 6.7688,-0.74051 10.60334,-0.45828 6.54742,-15.38653 l -2.40362,-5.59511 -0.28551,5.59511 c -0.26789,5.24945 -1.03868,6.86352 -4.00087,0.69938 -2.55634,-3.7252 -6.71826,-3.06641 -7.79852,1.23291 0.0501,8.96832 -1.75503,11.51246 -8.6245,-5.5951 -2.87878,-7.16928 -7.42601,-8.61518 -8.77785,-8.61518 -4.292988,0 -5.309502,3.54344 -3.181763,12.40766 0.982727,4.78718 4.264983,16.54385 0.168221,11.49664 -2.219849,-3.05591 -1.760344,-3.08841 -4.36573,-5.31762 -2.82954,-2.42098 -10.136108,-2.07718 -9.771302,8.57828 -0.722139,11.18753 1.159193,10.20698 19.420694,4.66561 z m 113.95103,-5.61673 c 0.41916,-8.08344 -3.78886,-14.19417 -10.53984,-4.89943 -4.74022,7.51455 -4.53802,2.36142 -3.85421,-3.66103 3.35402,-17.26652 -2.39178,-22.54195 -7.49607,-15.8161 -3.40225,6.21497 -4.28607,7.5478 -5.26869,13.11492 -2.21844,8.38017 -4.32773,7.64511 -4.94808,-1.726 -0.47829,-2.7473 -8.27068,-6.42184 -9.89759,2.35058 -0.94263,5.08267 -4.34857,1.21725 -3.98921,-4.65599 0.47552,-7.77151 3.02059,-10.23775 7.89574,-10.29212 8.20014,-0.0915 7.64065,10.95621 10.67177,-1.27943 0.68898,-2.7812 1.25601,-6.67057 3.64775,-10.08606 6.43744,-6.80144 13.13626,-4.37852 15.19823,-0.032 1.70242,3.40488 1.62311,6.16257 1.04398,10.91175 -0.74704,6.12617 -0.22894,11.26855 1.8859,7.74769 2.57059,-4.27962 12.12796,-1.87766 11.24497,7.43565 -1.43628,15.14926 3.92027,4.8641 8.93307,-2.78854 7.88195,-12.03274 12.03265,-31.37103 8.27378,-42.76375 -4.63739,-14.055367 -17.17515,-20.239448 -37.76444,-13.795087 -25.12714,7.864682 -29.54969,4.093923 -30.83628,34.724477 -0.62766,14.94337 -2.76818,26.37839 -3.4975,28.88072 -2.51325,8.62308 1.62481,7.55976 14.53736,10.21058 8.88423,1.82386 18.67025,3.84616 21.74669,4.494 14.35157,2.93379 12.33716,4.95212 13.01267,-8.07479 z M 81.140203,148.3618 c 1.153358,-4.82375 3.308568,-7.61763 5.930348,-6.12938 8.174425,3.75438 3.264921,-2.40027 3.264921,-7.11402 0,-4.61595 0.461258,-9.69809 2.057887,-11.48641 6.480772,-7.25883 16.135131,2.84706 18.937651,10.49212 5.5647,13.61182 5.46176,6.30866 6.7318,4.25313 1.37271,-2.22172 3.57191,-2.35229 7.17069,-0.42574 4.71016,2.52151 7.48889,3.56866 5.19073,-10.21492 C 125.10825,95.853267 121.92094,97.566257 92.105861,90.231663 65.900774,83.785137 52.598032,104.24082 61.104584,126.79519 c 6.058507,17.23648 17.498013,39.96219 18.757297,32.17185 0.497439,-3.0773 0.524006,-7.08032 1.278322,-10.60524 z m 80.580337,3.36725 c 0,0 3.31463,-18.56314 3.60375,-27.27614 l 0.52568,-16.87359 -15.07878,0.17247 -14.82082,-0.0855 1.3564,16.8708 c 2.25127,28.00115 6.58088,38.62627 14.58302,38.62627 5.53555,0 7.30745,-2.06093 9.83075,-11.43432 z m 4.72804,-60.907871 c 7.84763,-9.363225 4.84622,-14.240555 0.10059,-19.281988 -10.04001,-10.665811 -20.84497,-10.84295 -28.82172,-3.347084 -8.30702,7.806228 -10.77915,14.149113 -1.15015,24.537134 3.56559,4.287579 6.90958,7.078062 14.67259,7.388039 6.26265,-0.394911 11.79301,-5.23268 15.1987,-9.296101 z m -16.78968,-0.48245 c -4.81866,-3.524475 -4.75036,-3.930398 1.38443,-8.228582 6.85129,-4.800179 11.13511,-4.006945 11.13511,2.061885 0,6.819195 -6.94826,10.241667 -12.51954,6.166697 z M 148.86183,52.19227 c 0.98412,-2.565272 1.69282,-5.038659 -1.09916,-7.553392 -5.13623,-5.230088 -11.61889,-8.951576 3.63733,-7.365346 17.00006,-1.812617 11.75507,1.789348 5.82995,7.623313 -5.07864,5.000512 -0.3827,12.555779 6.21112,10.024786 3.21493,-1.234028 3.74445,-4.249274 2.30444,-13.122083 -1.02828,-6.335942 -2.83859,-12.555772 -4.0229,-13.821841 -3.63104,-3.881697 -22.59503,-4.504823 -20.87563,3.351471 0.72643,3.319224 -2.28292,8.943051 -4.79307,11.717517 -5.63456,6.227858 -1.30154,13.809701 5.91278,13.809701 2.80821,0 5.91101,-2.098858 6.89513,-4.664126 z"
     style="display:inline;fill:#000000;stroke-width:2.79716015" />
</svg>
