<?xml version="1.0" encoding="UTF-8" standalone="no"?>
<svg
   xmlns:dc="http://purl.org/dc/elements/1.1/"
   xmlns:cc="http://creativecommons.org/ns#"
   xmlns:rdf="http://www.w3.org/1999/02/22-rdf-syntax-ns#"
   xmlns:svg="http://www.w3.org/2000/svg"
   xmlns="http://www.w3.org/2000/svg"
   xmlns:sodipodi="http://sodipodi.sourceforge.net/DTD/sodipodi-0.dtd"
   xmlns:inkscape="http://www.inkscape.org/namespaces/inkscape"
   version="1.0"
   width="300.000000pt"
   height="300.000000pt"
   viewBox="0 0 300.000000 300.000000"
   preserveAspectRatio="xMidYMid meet"
   id="svg2"
   inkscape:version="0.92.5 (2060ec1f9f, 2020-04-08)"
   sodipodi:docname="wq.svg">
  <defs
     id="defs12">
    <filter
       style="color-interpolation-filters:sRGB;"
       inkscape:label="Drawing"
       id="filter18775">
      <feGaussianBlur
         in="SourceGraphic"
         stdDeviation="5.99659"
         result="blur1"
         id="feGaussianBlur18721" />
      <feConvolveMatrix
         in="blur1"
         targetX="1"
         targetY="1"
         order="3 3"
         kernelMatrix="0 250 0 250 -1010 250 0 250 0 "
         result="convolve1"
         id="feConvolveMatrix18723" />
      <feComposite
         in="convolve1"
         in2="convolve1"
         k1="1"
         k2="1"
         k4="0.04"
         operator="arithmetic"
         result="composite1"
         id="feComposite18725" />
      <feColorMatrix
         in="composite1"
         values="0 0 0 0 0 0 0 0 0 0 0 0 0 0 0 -0.2125 -0.7154 -0.0721 1 0 "
         result="color1"
         id="feColorMatrix18727" />
      <feGaussianBlur
         stdDeviation="0.61"
         result="blur2"
         id="feGaussianBlur18729" />
      <feColorMatrix
         values="1 0 0 0 0 0 1 0 0 0 0 0 1 0 0 0 0 0 2.7 -1 "
         result="color2"
         id="feColorMatrix18731" />
      <feFlood
         flood-color="rgb(255,255,255)"
         result="flood1"
         id="feFlood18733" />
      <feBlend
         in2="color2"
         mode="multiply"
         result="blend1"
         id="feBlend18735" />
      <feComponentTransfer
         in="blend1"
         result="component1"
         id="feComponentTransfer18743">
        <feFuncR
           type="discrete"
           tableValues="0 1 1 1"
           id="feFuncR18737" />
        <feFuncG
           type="discrete"
           tableValues="0 1 1 1"
           id="feFuncG18739" />
        <feFuncB
           type="discrete"
           tableValues="0 1 1 1"
           id="feFuncB18741" />
      </feComponentTransfer>
      <feGaussianBlur
         stdDeviation="0.61"
         result="blur3"
         id="feGaussianBlur18745" />
      <feColorMatrix
         in="blur3"
         values="0 0 0 0 0 0 0 0 0 0 0 0 0 0 0 -0.2125 -0.7154 -0.0721 1 0 "
         result="color3"
         id="feColorMatrix18747" />
      <feColorMatrix
         values="1 0 0 0 0 0 1 0 0 0 0 0 1 0 0 0 0 0 1.9 -0.5 "
         result="color4"
         id="feColorMatrix18749" />
      <feFlood
         flood-color="rgb(0,0,0)"
         result="flood2"
         id="feFlood18751" />
      <feComposite
         in="flood2"
         in2="color4"
         operator="in"
         result="composite2"
         id="feComposite18753" />
      <feComposite
         in="composite2"
         in2="composite2"
         operator="arithmetic"
         k2="1"
         result="composite3"
         id="feComposite18755" />
      <feOffset
         dx="0"
         dy="0"
         result="offset1"
         id="feOffset18757" />
      <feFlood
         in="color4"
         flood-color="rgb(66,66,66)"
         result="flood3"
         id="feFlood18759" />
      <feComposite
         in="flood3"
         in2="color4"
         operator="out"
         result="composite4"
         id="feComposite18761" />
      <feComposite
         in="composite4"
         in2="composite4"
         operator="arithmetic"
         k2="1"
         result="composite5"
         id="feComposite18763" />
      <feMerge
         result="merge1"
         id="feMerge18769">
        <feMergeNode
           in="composite5"
           id="feMergeNode18765" />
        <feMergeNode
           in="offset1"
           id="feMergeNode18767" />
      </feMerge>
      <feColorMatrix
         values="1 0 0 0 0 0 1 0 0 0 0 0 1 0 0 0 0 0 1.3 0 "
         result="color5"
         flood-opacity="0.56"
         id="feColorMatrix18771" />
      <feComposite
         in="color5"
         in2="SourceGraphic"
         operator="in"
         result="composite8"
         id="feComposite18773" />
    </filter>
  </defs>
  <sodipodi:namedview
     pagecolor="#ffffff"
     bordercolor="#666666"
     borderopacity="1"
     objecttolerance="10"
     gridtolerance="10"
     guidetolerance="10"
     inkscape:pageopacity="0"
     inkscape:pageshadow="2"
     inkscape:window-width="1379"
     inkscape:window-height="953"
     id="namedview10"
     showgrid="false"
     inkscape:zoom="1.0190999"
     inkscape:cx="116.02131"
     inkscape:cy="144.36367"
     inkscape:window-x="78"
     inkscape:window-y="24"
     inkscape:window-maximized="0"
     inkscape:current-layer="svg2"
     inkscape:pagecheckerboard="true">
    <inkscape:grid
       type="xygrid"
       id="grid842" />
  </sodipodi:namedview>
  <metadata
     id="metadata4">
Created by potrace 1.12, written by Peter Selinger 2001-2015
<rdf:RDF>
  <cc:Work
     rdf:about="">
    <dc:format>image/svg+xml</dc:format>
    <dc:type
       rdf:resource="http://purl.org/dc/dcmitype/StillImage" />
    <dc:title />
  </cc:Work>
</rdf:RDF>
</metadata>
  <path
     style="fill:#ffffff;fill-opacity:1;stroke-width:2.80216026"
     d="m 149.42969,2.71875 c -21.14397,0.5293084 -34.18036,29.428174 -20.45313,45.548828 2.55797,2.385601 6.30669,5.372399 4.00435,9.238577 -3.67447,19.271733 -6.12593,38.788897 -7.05318,58.390325 -5.28769,-13.73338 -12.60226,-27.052438 -16.44252,-41.071814 2.49112,-10.748689 3.14966,-23.59454 -5.32505,-32.018025 C 93.816475,31.227225 72.994208,31.333727 63.861328,44.402344 53.584931,56.903704 56.289029,79.791866 72.375,86.072266 c 4.592739,0.918909 5.59702,5.312616 4.822266,9.195312 0.474445,10.421032 1.61618,20.794222 2.632812,31.171872 C 71.845209,118.89426 61.483041,111.80902 58.609375,100.64844 59.057198,89.237672 54.177142,76.019785 42.423828,72.208984 25.677038,65.027553 2.7380211,78.423708 4.0195312,97.472656 3.9508676,111.64418 16.39984,124.07352 30.261719,125.26758 c 4.389005,6.57408 3.186067,15.29802 7.74414,21.88281 4.425806,10.38016 13.135855,19.10486 14.647644,30.45169 -2.060969,11.3049 -1.384059,23.92507 6.242981,33.13815 6.270484,10.587 12.2046,24.37117 5.560547,36.19141 -3.95147,9.65986 -5.215578,23.42122 4.5,30.10352 17.310952,13.21394 40.093359,14.37188 60.771079,17.70997 34.03348,3.15248 69.85579,1.09098 101.12541,-13.77638 9.84026,-6.39337 14.04877,-20.50588 7.96289,-30.83984 -4.84766,-12.71129 -2.54573,-27.65666 6.23617,-38.11416 6.3199,-9.64729 11.17767,-21.65547 7.44547,-33.2003 -0.64788,-13.87753 10.56025,-24.30731 14.59765,-37.00195 3.53912,-6.27402 4.1302,-16.14577 12.33008,-18.02344 10.17252,-3.14689 17.23282,-12.91668 17.53125,-23.4707 1.11681,-15.224456 -10.96847,-31.237712 -26.99414,-30.810548 -15.94617,-0.556277 -31.1466,15.363637 -26.99609,31.462888 0.88773,7.20173 -4.71059,12.45098 -9.64057,16.66384 -3.42233,3.57566 -6.79005,7.20557 -10.31842,10.67796 1.33919,-12.83636 2.03717,-26.11389 4.70703,-38.546875 10.2904,-6.461239 19.26275,-18.041703 16.5293,-30.863281 -2.20497,-16.389457 -20.62814,-29.621898 -36.65234,-22.96875 -16.30297,5.631244 -23.99828,27.588376 -14.56055,42.068359 -0.0746,7.122802 -6.00012,12.489247 -7.32231,19.389286 -2.38064,5.997251 -4.59848,12.058051 -6.81636,18.116571 -1.42041,-21.070611 -5.01564,-42.382216 -8.22852,-62.916013 13.4293,-12.3951 10.71222,-36.63467 -4.8125,-46.0722658 C 161.00837,3.243648 155.1431,2.4745996 149.42969,2.71875 Z m 2.32422,26.414062 c 3.40124,3.967505 -4.19995,-0.741989 0,0 z"
     id="path22677"
     inkscape:connector-curvature="0"
     sodipodi:nodetypes="cccccccccccccccccccccccccccccccccccccccccc" />
  <path
     sodipodi:nodetypes="csssssscsssccssssssscscsssscscssccsssssssssccsssccssssssscssczssscscsccccssccscsscscscssscssscssssccscsszcsscsssssscsssccsc"
     inkscape:connector-curvature="0"
     id="path843"
     d="m 124.60873,283.82515 c -27.172187,-3.87414 -49.99889,-10.834 -52.493335,-18.90858 -0.841173,-2.72289 0.527661,-10.23267 3.041848,-16.68839 5.595375,-14.36728 3.289889,-22.78865 -7.274585,-43.04619 -5.062466,-9.70735 -7.227668,-9.39825 -4.819626,-24.52031 0.728139,-4.57258 3.724801,-6.90496 -8.544685,-24.87257 -5.053881,-7.40098 -9.298062,-18.97413 -11.116981,-24.69598 -2.597953,-8.1725 -1.114519,-15.50898 -14.237636,-16.93279 -11.832791,-2.6628 -14.023561,-10.64253 -14.431678,-15.816392 -0.436456,-5.533128 1.739693,-13.806734 12.374316,-16.939465 8.633825,-2.543337 21.997631,3.009159 20.68707,16.616065 -1.171198,12.159962 2.373385,13.890182 23.299852,35.021752 15.878594,13.05068 23.753594,28.80068 20.793853,8.45421 -0.903033,-7.81077 -2.711065,-24.57124 -3.452971,-37.2841 C 86.971884,79.155482 86.374383,81.01715 78.007384,77.229732 71.339924,74.211631 69.198547,71.280259 68.537553,64.266289 67.050461,48.486454 82.131472,40.059858 94.043914,47.718498 c 4.295742,2.761777 6.883996,10.132891 6.627896,15.987051 -0.47736,10.911662 -7.422516,5.281974 4.09925,29.584258 1.56624,3.303588 8.34498,18.163803 14.16025,33.516533 5.81527,15.35273 9.13027,26.85587 12.80247,25.56254 3.40525,-3.81777 3.66635,-15.30319 4.42954,-28.99597 2.29462,-41.168631 4.70646,-51.38238 6.06435,-56.195388 4.28079,-23.809444 2.70997,-16.727973 -2.44797,-22.368742 -13.52476,-14.790828 -1.40957,-35.9520624 17.47347,-30.709023 5.73563,1.592545 11.48114,8.755648 11.49252,16.009219 0.0142,8.992395 -3.05637,12.386358 -5.55182,14.611358 -4.94388,4.408074 -5.34747,-0.07181 -1.63249,21.744222 1.88133,8.802415 4.1732,12.794602 6.72468,49.678784 1.23988,17.92381 2.03997,30.93023 3.43214,34.85998 3.22155,3.28746 6.64566,-2.64179 9.63778,-11.38493 1.47141,-4.29951 13.97008,-40.244864 22.18444,-56.693238 1.26513,-2.533299 1.25235,-5.728616 -0.0285,-7.100707 -4.75546,-7.94553 -4.19584,-16.901085 -2.60102,-20.552782 2.58351,-5.33993 8.50507,-10.239078 15.45544,-10.239078 17.39545,0 24.22187,22.542802 9.28803,33.081037 -11.82617,8.345282 -8.29487,3.129439 -10.85517,27.898608 -4.17274,40.36859 -5.27088,45.42527 -2.63663,45.42527 1.44927,0 11.28327,-8.7453 21.85333,-19.43402 17.55987,-17.75699 20.39824,-20.50141 19.21829,-31.04023 -1.67884,-14.994696 6.82618,-20.671696 16.35629,-20.532805 10.9146,0.159069 17.39439,8.257665 16.81831,19.047766 -0.38746,7.257279 -5.82287,13.810439 -13.0515,15.440049 -12.23448,2.75812 -8.39184,7.7921 -14.59401,19.89089 -5.32176,10.38135 -11.16438,23.5759 -13.8714,28.43967 -3.70002,6.64788 -3.91478,12.34221 -2.7998,16.83585 3.06553,12.35486 0.0966,16.10141 -6.59839,27.06528 -10.80636,17.69685 -13.1025,27.3954 -4.46319,52.67736 1.43384,4.19597 -0.81409,8.53758 -6.37981,12.2843 -16.49455,11.47781 -68.65074,16.18926 -100.042,11.71354 z m 55.90043,-10.77733 c 29.77986,-3.82081 39.75623,-8.5273 38.38509,-13.58612 -2.18855,-8.0746 -16.99038,-13.88523 -67.54814,-13.91222 -46.47193,-0.0248 -64.138526,7.25337 -65.606374,13.78339 -2.289045,10.18328 50.015744,19.45693 94.769424,13.71495 z m -56.43691,-35.13094 c 18.41264,-1.56212 58.68673,-2.55242 78.60349,3.97191 10.69932,3.50489 13.46463,2.70373 10.80148,-5.7307 -1.50051,-2.843 -3.10562,-6.39856 -10.17271,-12.02554 -13.48901,-10.74028 -28.77838,-6.87831 -37.07787,-2.94873 -5.22932,2.99184 -6.36674,4.24379 -8.34959,7.61467 -5.26026,9.19139 -7.10353,7.30386 -12.12357,-0.0514 -5.02004,-7.35532 -19.71471,-12.27382 -29.3736,-10.63576 -13.72203,2.32717 -25.846709,13.05987 -26.254062,20.24434 -0.364677,6.43178 0.858594,7.20115 6.220241,5.49901 3.421135,-1.0861 19.978771,-5.28047 27.726191,-5.93775 z m 11.68714,-29.69334 c 4.293,-3.03379 10.32201,-9.15312 10.87086,-10.61373 3.7031,-9.85484 7.82422,-5.14366 9.93093,0.11284 6.16888,8.27825 14.54903,14.45837 32.35822,16.13031 11.13431,0.84342 30.00462,-5.78953 30.88869,-12.30207 -3.66753,-3.76797 -43.02666,-11.5483 -69.02525,-11.06505 -26.44092,0.0929 -65.263302,7.73779 -68.698278,11.26686 -0.851052,0.87437 1.118584,3.33914 3.879092,6.47302 6.827356,7.75082 30.777776,11.25526 49.795736,-0.002 z m -29.41002,-23.40925 c 23.47194,-4.20038 58.11949,-5.31356 84.57198,-0.85595 10.44447,2.10037 25.67823,5.16522 30.58098,6.907 9.06874,3.22183 10.33158,0.96154 8.87493,-8.54035 -1.14029,-7.43829 0.69228,-13.60974 8.18127,-27.5516 5.30789,-9.8814 8.96136,-18.67443 8.11881,-19.54006 -0.84256,-0.86564 -10.07491,6.89963 -20.51635,17.25614 -19.16488,19.00898 -23.84859,21.75172 -26.09258,15.27965 -1.33441,-3.84865 1.79608,-43.68593 4.51969,-57.51571 1.63188,-8.28631 1.55086,-8.24723 -2.94368,1.42013 -2.54194,5.46755 -7.2479,18.03115 -10.45765,27.91912 -7.11177,21.90846 -17.0563,30.49024 -25.85359,22.3107 -4.38371,-4.0759 -5.53793,-10.58162 -7.02992,-39.62437 -2.00189,-38.967973 -4.54637,-55.220893 -7.96126,-46.078031 -2.15315,8.362324 -2.69887,25.070201 -4.12958,45.692541 -2.84877,41.06263 -6.34625,43.8341 -16.35966,43.18954 -5.31089,-0.34186 -8.92554,-4.68854 -18.22398,-27.84696 l -13.039455,-33.61963 3.801455,35.83146 c 3.99696,37.67429 0.70083,39.8743 -24.054154,15.21441 -24.345556,-24.25204 -25.970666,-23.04795 -8.240454,6.38701 6.84961,11.37144 5.365117,19.1574 4.044829,24.01129 -1.098035,6.89167 -0.212961,9.53029 11.139888,4.99498 5.915033,-1.62158 11.631368,-3.5525 21.068481,-5.24131 z M 36.681889,95.456868 c -0.920451,-2.464362 -3.578664,-3.665292 -5.907136,-3.665292 -4.462004,0 -6.639663,5.66474 -4.469705,9.208414 2.337821,3.8178 7.379189,2.89779 8.788213,1.67033 1.409023,-1.22748 3.052659,-3.390129 1.588628,-7.213452 z m 238.673501,3.926433 c 0.92213,-4.401421 -1.58958,-7.827394 -5.34021,-7.863516 -4.6242,-0.04453 -9.12516,4.407882 -4.87949,11.052475 2.36865,2.56861 9.09608,2.17414 10.2197,-3.188959 z M 221.57155,65.867057 c 3.14098,-4.216571 0.18026,-9.938977 -5.05352,-9.938977 -3.47156,0 -6.24611,4.463601 -5.67157,7.154149 1.27607,5.975657 7.04742,7.721887 10.72509,2.784828 z M 90.027084,60.399028 c -0.485877,-3.514847 -3.293634,-4.831085 -5.574388,-4.831085 -2.280755,0 -5.054427,2.174387 -5.494238,5.695211 -0.423806,3.392698 2.380291,6.850632 5.638259,6.798016 3.538803,-0.05715 6.110281,-2.743638 5.430367,-7.662142 z m 67.676356,-30.36334 c -0.105,-4.47731 -3.73606,-6.427769 -6.38157,-6.427769 -5.77318,0 -8.59204,7.241482 -4.41707,11.531543 4.37891,4.499622 10.33595,0.993475 10.79864,-5.103774 z"
     style="display:inline;fill:#000000;stroke-width:2.80216026" />
</svg>
