<?xml version="1.0" encoding="UTF-8" standalone="no"?>
<svg
   xmlns:dc="http://purl.org/dc/elements/1.1/"
   xmlns:cc="http://creativecommons.org/ns#"
   xmlns:rdf="http://www.w3.org/1999/02/22-rdf-syntax-ns#"
   xmlns:svg="http://www.w3.org/2000/svg"
   xmlns="http://www.w3.org/2000/svg"
   xmlns:sodipodi="http://sodipodi.sourceforge.net/DTD/sodipodi-0.dtd"
   xmlns:inkscape="http://www.inkscape.org/namespaces/inkscape"
   version="1.0"
   width="300.000000pt"
   height="300.000000pt"
   viewBox="0 0 300.000000 300.000000"
   preserveAspectRatio="xMidYMid meet"
   id="svg2"
   inkscape:version="0.92.5 (2060ec1f9f, 2020-04-08)"
   sodipodi:docname="bk.svg">
  <defs
     id="defs12" />
  <sodipodi:namedview
     pagecolor="#ffffff"
     bordercolor="#666666"
     borderopacity="1"
     objecttolerance="10"
     gridtolerance="10"
     guidetolerance="10"
     inkscape:pageopacity="0"
     inkscape:pageshadow="2"
     inkscape:window-width="1374"
     inkscape:window-height="949"
     id="namedview10"
     showgrid="false"
     inkscape:zoom="1.4424992"
     inkscape:cx="65.844136"
     inkscape:cy="57.532309"
     inkscape:window-x="10"
     inkscape:window-y="17"
     inkscape:window-maximized="0"
     inkscape:current-layer="svg2"
     inkscape:pagecheckerboard="true" />
  <metadata
     id="metadata4">
Created by potrace 1.12, written by Peter Selinger 2001-2015
<rdf:RDF>
  <cc:Work
     rdf:about="">
    <dc:format>image/svg+xml</dc:format>
    <dc:type
       rdf:resource="http://purl.org/dc/dcmitype/StillImage" />
    <dc:title />
  </cc:Work>
</rdf:RDF>
</metadata>
  <path
     style="display:inline;fill:#ffffff;fill-opacity:1;stroke-width:0.71125984"
     d="M 182.6142,1.2000774 C 158.18258,2.5315881 133.26826,-0.31363549 108.89549,1.6685019 98.312851,2.4011878 97.493331,8.3127429 97.968377,28.477448 97.830252,39.441792 98.687522,50.656901 98.062562,61.42537 74.753607,44.639235 39.673521,44.833037 18.35278,64.958866 -3.9965771,85.424054 -6.9718908,120.46791 3.7448167,147.55385 c 7.4383373,19.94336 23.2631623,34.73052 37.6259333,49.71937 6.851422,7.68606 4.39078,19.0721 6.299587,28.51533 3.219791,15.49897 1.858955,32.30871 8.796214,46.82422 12.627491,10.94629 30.361848,10.35038 45.545789,15.09786 45.80525,8.46716 94.43652,5.56115 137.82481,-11.85967 10.87894,-8.40111 9.16036,-23.78213 11.08447,-35.87022 0.48795,-11.79497 5.29241,-23.31525 3.98262,-35.04579 1.91062,-10.03702 12.58635,-14.12347 18.27656,-21.66036 16.31887,-16.56392 29.96965,-37.79002 30.55872,-61.72016 3.55463,-30.481974 -16.29006,-63.955655 -47.38486,-70.238943 -18.38113,-4.477263 -38.96223,-0.135797 -53.93607,10.616426 0.0214,-17.79387 1.8394,-48.573448 -2.02629,-53.3258621 C 196.5609,3.11497 188.95867,1.0571489 182.6142,1.2000774 Z"
     id="path847"
     inkscape:connector-curvature="0"
     sodipodi:nodetypes="ccccccccccccccccccc" />
  <path
     sodipodi:nodetypes="sccccccscccccccccccccccccccccccccccccccccccccccccccscsssccccsccccccssccccccscsssccccccsccccccccccccccccccccccccccccccccccccccscccccccccsccsccccccccccccccccccsccsccccccccccccccccscccc"
     inkscape:connector-curvature="0"
     id="path872"
     d="m 117.81874,12.304546 c -6.58046,-0.01714 -8.83508,1.136666 -8.88398,7.756566 0.19823,9.877473 0.2311,22.53149 0.28454,31.656885 -0.20022,6.164406 0.18515,10.963178 0.0231,13.732031 0.11669,7.226495 -0.45972,14.71321 -1.35043,15.60388 -1.48031,1.480233 -2.70392,1.139836 -6.77989,-2.425563 C 98.273465,75.796417 95.163864,73.295632 89.699464,69.442899 87.498536,67.178419 82.959567,65.103969 78.702145,63.765824 74.930689,62.58042 65.646484,60.333802 62.318455,60.345121 49.060004,60.045684 42.920651,62.688845 38.002854,65.103959 29.96878,69.086788 24.187743,73.805436 17.91699,82.036748 c -2.797835,4.791733 -4.945822,8.226619 -6.699902,16.057613 -1.9438819,7.691149 -2.3871988,17.608269 -1.8041749,27.948569 1.4716719,10.17006 3.3924459,17.50748 7.6489009,24.28945 2.227664,3.41028 5.910812,9.30814 9.536133,14.18577 3.86666,5.07522 10.281992,12.97482 16.780517,18.99382 11.847028,10.04427 11.977794,10.83684 12.859937,19.26145 0.126318,1.16734 0.310685,3.18476 0.50603,4.80344 0.0057,-0.002 0.01118,-0.003 0.01692,-0.005 1.67678,14.9342 3.679612,27.78818 5.61709,45.53196 0.184239,2.51602 1.380035,7.19669 1.821094,11.45875 0.646016,3.03869 9.435689,5.07268 17.820265,7.30898 12.437058,2.91539 25.32526,5.92228 33.71638,6.85063 4.92026,0.73734 11.16438,1.8161 17.51264,2.2979 7.35828,0.0141 15.79784,0.42406 22.98208,-0.0231 5.13099,-0.13365 13.96828,-0.32114 22.7406,-1.39505 8.40508,-0.87518 18.19642,-3.04133 27.73169,-4.58811 7.61256,-1.68397 16.79609,-4.25956 23.42197,-6.52148 2.56318,-1.06266 5.92786,-3.11353 6.33692,-5.13567 l 1.43964,-7.33821 c 1.01258,-8.11798 1.96721,-15.75389 3.19461,-24.62322 0.56347,-6.67622 1.58016,-13.40818 2.39633,-20.18276 0.01,0.005 0.0208,0.009 0.0308,0.0139 -0.009,-0.008 -0.02,-0.015 -0.0292,-0.0231 0.26576,-0.61419 0.98619,-7.45954 1.35813,-10.07292 0.40529,-2.51088 0.51445,-4.54904 1.45041,-6.48457 0.74957,-1.71988 10.36845,-10.28574 12.70613,-12.58616 3.56262,-3.55804 7.91208,-8.0882 12.17703,-12.68306 6.55073,-9.02019 12.3268,-16.61128 15.47006,-22.74521 2.72155,-4.58668 4.55239,-11.35227 5.17105,-17.74644 0.35385,-0.42633 0.69238,-5.40192 0.75213,-11.05576 0.0547,-8.92918 -0.93543,-18.540347 -4.87266,-28.768358 -3.15776,-7.016302 -10.96254,-15.592956 -16.0515,-18.575361 -3.89164,-3.008257 -15.59752,-9.890448 -27.93779,-9.854516 -6.74724,0.06997 -15.38124,1.112075 -23.2251,3.903662 -7.02045,3.135347 -10.76921,5.919248 -14.67488,8.85784 -3.90567,2.938588 -4.47001,3.667505 -6.18772,5.269477 -2.82569,2.37577 -4.57352,4.289536 -6.38305,3.419168 -0.91453,-1.101933 -1.45613,-3.459275 -1.36121,-9.299265 -0.1012,-13.836907 -0.26199,-31.085276 -0.1092,-51.11829 -0.28334,-6.457661 0.82343,-9.224896 -7.50586,-9.236204 -9.23545,-0.26998 -21.11356,0.155988 -30.68789,0.281469 -9.57436,0.125482 -20.28359,-0.286619 -27.66248,-0.156884 -3.23347,-0.106951 -5.90761,-0.241916 -8.1011,-0.247632 z m 51.2485,15.999971 c 1.58415,0.13428 3.00187,1.822093 5.06567,4.032425 2.83842,3.049453 3.09842,3.614958 -0.95976,7.646174 -1.71288,1.646721 -5.81369,5.534139 -7.73196,7.550464 -4.35521,4.227104 -7.35093,5.933726 -2.19815,10.258318 3.31569,3.051593 7.50552,7.130009 11.16342,11.148047 2.80645,2.633484 2.52851,3.918427 -1.33505,7.588918 -3.1939,3.034276 -4.35649,3.036253 -8.64639,-1.496558 -2.63629,-2.538325 -5.40229,-5.402791 -8.73046,-8.322585 -1.72202,-1.866717 -4.18532,-3.561101 -5.58028,-3.48632 -2.15781,0.115686 -5.61114,3.439803 -9.38114,7.35153 -2.11154,2.209606 -4.31145,4.18394 -7.10596,6.536864 -2.80124,2.449385 -3.48872,1.483768 -6.73527,-1.087428 -1.857,-1.470711 -3.08459,-2.867082 -3.08459,-4.025896 0,-2.002478 1.87249,-3.433156 4.89953,-6.242363 4.96977,-4.61214 10.71419,-9.806528 10.50974,-11.961694 -0.40966,-2.54244 -6.38714,-8.26202 -11.90163,-13.337494 -1.34445,-1.379415 -3.85854,-3.537938 -3.8787,-4.264925 -0.36588,-1.477499 5.54219,-7.508015 7.58187,-7.517571 1.21531,-0.153235 2.89841,1.266563 4.28315,2.651237 1.61176,1.453979 2.65035,2.613142 4.34882,4.206002 1.28504,1.352846 4.33814,4.504535 6.13611,6.251417 3.37465,3.278761 4.67766,3.729568 5.84418,2.271313 2.08739,-1.659637 4.74762,-4.313231 8.04497,-7.570421 5.17173,-5.108743 7.88169,-8.307465 9.39188,-8.179454 z M 149.208,90.056325 c 3.70573,-0.136529 7.07939,0.97687 9.01011,2.204079 3.86143,2.454417 6.71795,6.535194 6.68298,12.649216 -0.48183,6.26301 -3.17217,8.73576 -6.69991,11.24649 -3.92556,2.30402 -8.71427,2.32435 -11.96938,1.60555 -1.97381,-0.43587 -6.56368,-2.62407 -8.47178,-5.8076 -3.98828,-5.98163 -2.49819,-12.787896 0.44759,-16.599026 3.25714,-3.776094 7.29466,-5.16218 11.00039,-5.298709 z M 74.987665,105.63253 c 2.247572,0.045 4.561413,0.2287 6.795267,0.55678 4.106544,1.07614 9.18503,3.87476 12.899927,6.53687 2.685966,1.7909 9.894691,10.76159 12.610761,14.9302 3.70701,6.378 8.16066,14.2579 11.5018,20.68879 2.07912,4.00009 3.59689,6.84403 5.77244,11.07114 3.04705,6.43101 4.70124,8.22395 5.6417,9.65918 0.81657,1.29706 8.18119,0.268 11.42952,0.0969 4.53349,-0.34849 11.72455,-0.17265 17.56802,0.10766 10.94515,0.52503 10.42491,1.26347 13.47517,-3.75755 3.9783,-6.61618 8.14823,-15.52426 12.49695,-23.21587 1.81997,-3.71038 5.22121,-9.25309 7.75041,-13.06296 3.96865,-6.96459 10.75955,-14.8141 15.65002,-17.98484 8.12136,-4.78188 17.7142,-6.38515 27.65941,-4.66655 5.15946,1.41518 9.79553,5.43762 11.87094,9.10855 2.81893,4.67167 3.19153,10.50097 2.67165,16.63286 -0.47849,9.67537 -9.63804,22.80392 -18.2663,32.86274 -3.31403,4.39471 -9.92465,11.80686 -9.94681,13.46595 0.0406,2.05813 1.65712,2.86112 3.72371,3.70525 3.75561,1.4151 3.92006,2.14244 4.19436,4.30817 0.1867,1.47396 -1.15175,3.70169 -1.66267,4.96495 -1.80202,3.90017 -5.28139,1.78932 -11.69868,-0.19842 -9.37756,-3.29596 -23.19259,-6.63291 -29.54202,-7.73196 -9.64924,-2.18013 -24.52118,-2.83801 -35.29599,-2.89775 -11.81587,0.10938 -26.67438,0.88943 -39.7826,4.0021 -8.72461,1.72539 -19.991487,4.23995 -28.937535,7.57507 -4.341432,1.1864 -8.184519,2.62631 -10.406694,0.32761 -1.269489,-1.90342 -2.725371,-5.30499 -2.302513,-7.53508 0.212364,-1.37955 3.601683,-2.54963 5.240258,-3.29305 2.133842,-1.30616 2.389889,-1.95097 1.444267,-4.63117 -1.290949,-2.72053 -2.367398,-3.06715 -5.283329,-6.92754 -4.018911,-4.94152 -10.63755,-13.08414 -13.479785,-17.45881 -3.091779,-4.84002 -6.36838,-10.50994 -7.976514,-16.20066 -0.677105,-2.39795 -1.135773,-14.39524 0.893628,-18.75542 2.266869,-4.69269 8.508958,-10.08594 13.301368,-11.35876 2.685015,-0.68611 6.243917,-0.99944 9.989864,-0.92439 z m 151.483005,13.37673 c -1.99997,0.0685 -4.31178,0.47625 -6.68452,1.44426 -4.5686,1.79134 -9.0599,5.42567 -12.65845,10.67893 -2.69822,3.20088 -11.04975,16.33957 -15.36856,23.94185 -1.72409,3.03051 -2.87538,5.02038 -4.88188,8.62559 -2.05268,4.24886 -2.95459,7.49781 3.01465,8.72863 4.12953,0.66293 7.70047,1.28737 11.45105,2.33789 1.81202,0.46773 5.42514,1.40247 7.11365,0.70291 1.66774,-0.9594 6.30896,-6.4422 8.15032,-9.53152 3.20175,-4.21285 5.7417,-8.10466 8.78862,-12.60616 2.22578,-3.20595 4.10084,-6.32144 6.28154,-9.57458 3.14496,-4.50032 5.44394,-9.23384 5.26948,-15.63772 -0.27263,-4.8941 -1.73282,-7.14446 -5.66169,-8.51484 -1.12552,-0.39258 -2.81424,-0.66376 -4.81421,-0.59524 z m -152.642717,0.009 c -1.442401,0.0458 -2.790691,0.30721 -3.932887,0.78443 -3.729299,1.55812 -5.309497,3.29464 -5.52019,9.19621 -0.14954,4.18864 1.946302,9.63225 3.463769,11.90786 2.122928,4.20708 5.006185,8.88793 8.914745,14.38418 2.492358,3.52771 3.42998,5.04916 6.218486,9.23929 2.654386,3.79177 3.571336,4.83973 8.648655,10.40207 2.573897,2.64286 10.862119,-0.82369 14.936339,-1.56577 3.12505,-0.69788 6.81946,-0.61052 8.12571,-2.36404 1.18848,-3.32582 -0.34183,-6.03832 -2.86852,-10.41899 -2.32748,-4.33912 -6.83236,-11.82906 -9.91913,-16.36524 -0.65552,-1.37707 -6.574519,-11.03708 -9.909873,-15.427 -3.292364,-3.62079 -6.924346,-6.41474 -10.695848,-8.19492 -2.393748,-1.12988 -5.057262,-1.65449 -7.461256,-1.57808 z m 7.320558,89.12909 c 1.57322,0.006 3.679153,0.1559 6.535328,0.47526 11.42471,1.27751 14.666411,3.36751 1.452936,9.9401 -6.090187,3.02935 -9.966732,5.69109 -11.838092,3.51508 -1.758346,-1.67798 -2.585268,-8.39565 -1.787255,-10.84504 0.994014,-1.83709 0.917438,-3.10546 5.637083,-3.0854 z m 137.301409,0.0497 c 5.25725,0.028 6.09899,1.43241 6.85833,2.82393 1.06041,1.94325 -0.24084,9.12105 -1.53963,10.65586 -1.70004,2.10315 -4.44366,0.71953 -14.17852,-4.02889 -9.87965,-4.81905 -7.89788,-8.52689 6.32352,-9.37399 0.86687,-0.0422 1.76443,-0.0799 2.5363,-0.0769 z m -67.01477,19.64698 c 7.58655,0.027 14.84263,0.30867 20.05203,0.71983 10.41876,0.8223 23.36822,3.01702 30.45563,4.96802 7.08743,1.95099 13.29477,3.77916 15.47627,4.57505 3.25214,1.18649 4.61594,1.97244 4.49429,7.51048 -0.11828,5.38527 -1.86531,6.0993 -4.56503,4.89265 -8.16062,-2.81704 -20.02119,-6.22052 -26.42592,-7.17904 -4.36008,-1.01208 -14.32598,-2.39135 -18.63236,-2.61321 -9.31876,-0.56933 -16.68544,-0.79809 -27.05032,-0.5291 -6.28694,0.0287 -17.29054,0.51144 -24.40174,1.50271 -9.73497,1.38274 -20.44609,3.90966 -30.476435,7.11905 -9.978932,3.6092 -10.997705,3.32518 -11.124981,-2.89468 -0.127267,-6.21986 0.826403,-6.40402 4.969559,-8.09187 2.768409,-0.89712 9.100457,-2.74454 17.582667,-5.0534 8.8551,-1.93597 16.93997,-3.0848 27.60864,-4.11591 6.5329,-0.60873 14.45115,-0.83755 22.0377,-0.81058 z"
     style="display:inline;fill:#000000;fill-opacity:1;stroke-width:0.71125984" />
  <path
     style="display:inline;fill:#ffffff;fill-opacity:1;stroke-width:0.6665436"
     d="m 142.34397,211.58835 c -2.4845,-1.70564 -11.6594,-5.22275 -11.67916,-7.02811 -0.15095,-1.44068 4.4832,-2.88443 6.95942,-4.10328 4.64926,-1.97808 8.44533,-3.66074 12.06948,-4.79418 2.40567,-0.72464 5.5695,0.68098 7.21277,1.4853 3.5405,1.27701 6.47247,2.72698 9.97564,4.13668 9.12169,3.27879 4.18766,4.81795 -0.37563,7.06248 -4.81601,2.65723 -11.99101,5.72346 -12.63701,6.05673 -4.00221,1.20066 -7.38725,-1.16284 -11.52551,-2.81562 z"
     id="path827"
     inkscape:connector-curvature="0"
     sodipodi:nodetypes="ccccccccc" />
</svg>
