<?xml version="1.0" encoding="UTF-8" standalone="no"?>
<svg
   xmlns:dc="http://purl.org/dc/elements/1.1/"
   xmlns:cc="http://creativecommons.org/ns#"
   xmlns:rdf="http://www.w3.org/1999/02/22-rdf-syntax-ns#"
   xmlns:svg="http://www.w3.org/2000/svg"
   xmlns="http://www.w3.org/2000/svg"
   xmlns:sodipodi="http://sodipodi.sourceforge.net/DTD/sodipodi-0.dtd"
   xmlns:inkscape="http://www.inkscape.org/namespaces/inkscape"
   version="1.0"
   width="300.000000pt"
   height="300.000000pt"
   viewBox="0 0 300.000000 300.000000"
   preserveAspectRatio="xMidYMid meet"
   id="svg2"
   inkscape:version="0.92.5 (2060ec1f9f, 2020-04-08)"
   sodipodi:docname="bn.svg">
  <defs
     id="defs12" />
  <sodipodi:namedview
     pagecolor="#ffffff"
     bordercolor="#666666"
     borderopacity="1"
     objecttolerance="10"
     gridtolerance="10"
     guidetolerance="10"
     inkscape:pageopacity="0"
     inkscape:pageshadow="2"
     inkscape:window-width="1223"
     inkscape:window-height="932"
     id="namedview10"
     showgrid="false"
     inkscape:zoom="1.1873171"
     inkscape:cx="229.32567"
     inkscape:cy="125.90224"
     inkscape:window-x="650"
     inkscape:window-y="25"
     inkscape:window-maximized="0"
     inkscape:current-layer="svg2"
     inkscape:pagecheckerboard="true" />
  <metadata
     id="metadata4">
Created by potrace 1.12, written by Peter Selinger 2001-2015
<rdf:RDF>
  <cc:Work
     rdf:about="">
    <dc:format>image/svg+xml</dc:format>
    <dc:type
       rdf:resource="http://purl.org/dc/dcmitype/StillImage" />
    <dc:title />
  </cc:Work>
</rdf:RDF>
</metadata>
  <path
     style="display:inline;fill:#fffffa;fill-opacity:1;stroke-width:0.76099169"
     d="m 82.90625,-1.6894531 c -8.170187,-0.253659 -12.651221,9.4567078 -12.267578,15.7597651 -7.512342,-2.61156 -16.579959,2.601467 -17.060547,10.81836 -3.109664,9.555487 -3.759916,21.054115 3.330078,29.064453 2.842553,5.951128 1.208378,12.807064 3.441406,18.894531 -9.289043,11.629786 -17.534294,24.933819 -19.904297,39.966794 -2.873187,12.87752 -11.640551,22.88155 -18.277343,33.86524 -7.513728,10.35912 -17.0826967,20.7558 -17.1437211,34.37883 -1.342725,16.74051 9.5405061,32.82569 24.1964551,40.15242 5.877262,2.79272 14.22044,3.3628 19.210938,-0.52539 8.667772,9.28329 23.749155,6.44375 33.349609,0.0742 9.647749,-5.69218 14.259953,-16.42682 20.6582,-24.96875 8.98536,-7.54338 21.67722,-6.92459 31.9668,-11.10352 -10.82807,17.83523 -30.55205,26.71419 -46.289062,39.26172 -12.229101,11.15123 -18.009366,28.65944 -14.392183,44.85887 0.625726,8.00007 5.367579,17.45664 14.450776,17.54738 12.533979,1.01681 25.012449,-0.0586 37.522959,0.77266 52.76668,0.46575 105.87225,2.95019 158.42626,-1.71407 10.23847,-7.0572 8.41765,-21.07637 9.79297,-31.81054 3.71289,-44.96886 0.26273,-93.06574 -23.99676,-132.3651 C 247.29674,81.292251 209.17333,49.414413 164.22316,38.27229 151.35416,34.240674 137.48204,33.046894 125.0625,27.962891 113.87984,17.681198 105.57547,2.2090839 89.488281,-1.0957031 87.328802,-1.5575786 85.113188,-1.7497839 82.90625,-1.6894531 Z"
     id="path827"
     inkscape:connector-curvature="0"
     sodipodi:nodetypes="cccccccccccccccccccccccc" />
  <path
     sodipodi:nodetypes="cccccssccscscscssccscscscsscssssssscscssccccssssscccssccssccccccscccssscccccscccccccccssssccccsssssccccsssccccscsss"
     inkscape:connector-curvature="0"
     id="path816"
     d="m 111.53838,276.58546 c -13.607166,-0.22914 -25.020855,-0.67074 -25.363729,-0.98131 -0.411712,-0.40424 -1.332576,-4.3113 -2.056183,-8.73278 -1.508121,-8.47558 -0.501286,-14.63195 1.651108,-22.42238 2.354766,-6.08598 8.485995,-11.80504 13.726537,-16.28599 1.329697,-1.10989 5.473117,-3.86262 9.207607,-6.11717 7.19968,-4.34651 7.80366,-4.798 20.28306,-15.16218 9.48836,-7.88011 14.37907,-14.90014 19.76147,-28.36517 2.84766,-7.12395 3.43656,-9.54883 3.74786,-15.43264 0.34106,-6.4454 0.23581,-7.10165 -1.37267,-8.55865 -2.19968,-1.99252 -3.64067,-1.09191 -4.3155,2.69717 -0.26471,1.48629 -2.02929,4.95239 -3.92129,7.70246 -2.84181,4.13063 -4.40918,5.54348 -9.01347,8.1249 -6.26032,3.50985 -8.73578,4.3053 -16.76755,5.388 -6.24165,0.84138 -13.85483,3.56999 -16.67949,5.97802 -1.021104,0.8705 -3.663096,2.94725 -5.871097,4.61501 -3.275143,2.47379 -4.479982,4.07456 -6.541588,8.69126 -5.842981,13.08459 -18.978614,20.879 -29.557174,17.53859 -1.384921,-0.43732 -2.563012,-1.25213 -2.617984,-1.81068 -0.05496,-0.55855 -0.133005,-1.42295 -0.173414,-1.9209 -0.200233,-2.46747 2.042004,-7.65655 4.036865,-9.34229 1.228315,-1.03797 4.158193,-2.45309 6.510845,-3.14472 5.29529,-1.55668 8.174013,-4.2032 9.904834,-9.10587 1.19733,-3.39153 1.211066,-3.99474 0.13392,-5.88154 -2.683873,-4.70124 -9.116686,-4.52412 -14.328039,0.3945 -3.11659,2.94154 -3.816308,4.34567 -6.386303,12.81557 -1.036041,3.41447 -2.191556,4.9219 -7.633854,9.95873 -3.52716,3.26438 -6.850228,5.97131 -7.384594,6.0154 -6.164545,0.50867 -14.604798,-5.17021 -19.809257,-13.83058 -4.76147,-7.92322 -5.005558,-8.9227 -5.377922,-14.17846 -0.288738,-4.07544 0.01711,-6.31041 1.394838,-10.19266 2.418856,-6.81601 6.655897,-13.63072 12.026515,-19.07943 1.622932,-1.64653 6.405588,-9.59613 9.758949,-16.35225 0.406272,-0.81853 1.709496,-2.44814 2.89605,-3.62135 3.691446,-3.64995 5.004059,-6.04015 6.22146,-11.32896 0.647267,-2.81195 1.69133,-6.22801 2.320141,-7.59123 0.62881,-1.36322 1.685945,-4.82522 2.349193,-7.69332 1.444951,-6.24849 3.736431,-11.839843 6.445208,-15.726701 1.095575,-1.572052 1.991956,-3.001734 1.991956,-3.177065 0,-0.175333 1.937449,-2.870664 4.305441,-5.989629 2.367995,-3.118965 5.115386,-7.236723 6.105323,-9.150559 1.898149,-3.669716 1.908927,-3.596943 -1.255084,-8.470763 -0.846125,-1.30336 -1.057731,-3.096082 -0.755253,-6.398427 0.524904,-5.730607 -0.58085,-9.566251 -3.679343,-12.76288 -1.324279,-1.366227 -2.742331,-3.540693 -3.151225,-4.832147 -0.857844,-2.709427 -0.68249,-8.232196 0.899089,-12.294486 0.601088,-1.543892 0.947542,-3.480202 0.947542,-4.625167 0,-1.337765 0.996622,-2.543165 1.743272,-2.543165 1.80419,0 10.762032,7.532763 16.028946,13.478946 l 2.398721,2.708081 0.505085,-2.118276 c 1.477499,-6.196597 -0.155767,-20.119177 -2.930351,-24.979325 -1.380689,-2.418498 -0.293789,-3.5748497 3.360137,-3.5748497 6.384086,0 15.076092,6.7004147 26.650422,20.5440407 7.32818,8.76494 7.751,9.128518 11.99361,10.31316 4.57185,1.340816 11.14437,2.225535 15.73972,3.245699 3.44752,0.770365 12.39208,2.907696 15.04561,3.580329 9.00292,2.282107 25.85949,7.229377 40.02773,14.822777 14.60722,7.828676 22.79861,13.811068 28.88911,19.143915 11.49546,10.999686 17.07659,17.399789 25.75193,28.474322 8.60526,12.6272 14.74923,21.42179 20.70937,35.21244 3.59292,8.6476 6.50613,17.20437 8.92056,26.17581 1.6772,8.7717 3.58789,17.14349 4.54607,26.07376 1.644,21.91806 0.84885,40.48012 -0.13868,58.54326 -0.24579,4.76126 -1.77669,17.3752 -2.63891,19.4105 -0.24344,0.57461 -1.66108,1.87137 -2.39667,2.19809 -54.12215,1.38098 -116.72157,0.79472 -166.81948,-0.0688 z m 150.49511,-17.11847 c 2.64802,-0.64335 3.43502,0.0368 4.95017,-6.89357 1.07745,-4.9283 1.25555,-10.935 1.34726,-29.52993 0.12432,-25.20612 -2.82911,-40.76078 -5.38636,-48.23472 -6.47465,-27.20935 -19.84904,-47.96332 -29.09224,-59.99522 -4.73431,-6.54636 -13.75713,-16.621353 -25.26014,-26.407698 -9.78893,-7.715192 -27.85546,-18.971659 -41.14998,-23.904302 -8.44052,-2.986829 -17.00352,-4.921298 -20.86073,-2.285812 -1.85288,1.266006 -2.02588,3.243336 -1.00137,4.428178 2.1801,2.521275 6.41032,4.853181 10.45022,6.749354 5.36117,3.058947 12.57556,6.854942 16.85862,9.90637 5.85713,3.384782 12.00248,7.180356 17.12047,11.122981 10.33352,8.677079 16.29417,14.328289 24.70518,23.791999 2.71621,2.924 13.1368,15.24722 17.16693,22.99252 5.38863,8.91751 9.29382,20.10133 12.19064,29.36616 2.46365,7.91222 3.90955,18.38061 5.75076,30.60189 0.78741,16.05435 1.02739,28.22381 0.23503,43.81993 -0.33681,6.75048 -1.75875,12.03617 1.20672,13.76406 1.47769,0.78523 6.43727,1.76016 10.76882,0.70781 z M 41.315617,190.16503 c 0.285497,-0.69712 1.143426,-1.75636 1.906507,-2.35388 8.084266,-6.33032 9.733305,-8.65745 8.468235,-11.95048 -0.843348,-2.19527 -5.703313,-4.70776 -9.106299,-4.70776 -2.480079,0 -3.626198,0.57462 -6.807592,3.41306 -2.899596,2.59718 -5.116432,6.27877 -5.814969,9.5734 -0.908174,4.86916 1.552608,7.15219 7.811533,7.24722 2.179547,0.0331 3.168389,-0.30789 3.542585,-1.22156 z m 46.496586,-59.93345 c 2.669018,-2.66961 4.354264,-2.22122 8.797262,-0.52268 4.626425,2.39735 7.096655,4.0937 8.389855,2.28362 1.32223,-1.85071 -0.96311,-8.49079 -7.010839,-13.56223 -5.891593,-4.94054 -10.6342,-6.48479 -15.981985,-6.5234 -4.781108,-0.0345 -6.847614,0.13076 -9.942782,2.06198 -6.273856,3.91454 -4.266555,4.96007 0.489892,7.97144 3.389125,1.17328 2.996299,1.97879 3.03682,5.45299 0.444488,4.96685 8.482985,6.53439 12.221774,2.83828 z m 29.382957,-42.06024 2.3001,-6.136395 -3.73669,-2.89321 c -5.1205,-3.964668 -6.82699,-6.753049 -8.22615,-13.4415 -0.81993,-3.919558 -1.26915,-6.629463 -2.37325,-7.453548 -2.70051,-2.015645 -4.73728,-0.687514 -5.865319,3.243448 -3.766434,11.393576 -3.409412,16.353603 -1.927145,22.651745 1.177361,5.001802 3.291704,6.785348 7.108184,10.013244 3.28653,2.779675 6.39659,3.307143 8.72697,1.480111 0.93128,-0.730139 2.72826,-4.088885 3.9933,-7.463895 z"
     style="display:inline;fill:#000009;fill-opacity:1;stroke-width:0.76099169" />
</svg>
