<?xml version="1.0" encoding="UTF-8" standalone="no"?>
<svg
   xmlns:dc="http://purl.org/dc/elements/1.1/"
   xmlns:cc="http://creativecommons.org/ns#"
   xmlns:rdf="http://www.w3.org/1999/02/22-rdf-syntax-ns#"
   xmlns:svg="http://www.w3.org/2000/svg"
   xmlns="http://www.w3.org/2000/svg"
   xmlns:sodipodi="http://sodipodi.sourceforge.net/DTD/sodipodi-0.dtd"
   xmlns:inkscape="http://www.inkscape.org/namespaces/inkscape"
   version="1.0"
   width="300.000000pt"
   height="300.000000pt"
   viewBox="0 0 300.000000 300.000000"
   preserveAspectRatio="xMidYMid meet"
   id="svg2"
   inkscape:version="0.92.5 (2060ec1f9f, 2020-04-08)"
   sodipodi:docname="bq.svg">
  <defs
     id="defs12" />
  <sodipodi:namedview
     pagecolor="#ffffff"
     bordercolor="#666666"
     borderopacity="1"
     objecttolerance="10"
     gridtolerance="10"
     guidetolerance="10"
     inkscape:pageopacity="0"
     inkscape:pageshadow="2"
     inkscape:window-width="1209"
     inkscape:window-height="966"
     id="namedview10"
     showgrid="false"
     inkscape:zoom="0.71865986"
     inkscape:cx="87.944087"
     inkscape:cy="145.45098"
     inkscape:window-x="684"
     inkscape:window-y="12"
     inkscape:window-maximized="0"
     inkscape:current-layer="svg2"
     inkscape:pagecheckerboard="true" />
  <metadata
     id="metadata4">
Created by potrace 1.12, written by Peter Selinger 2001-2015
<rdf:RDF>
  <cc:Work
     rdf:about="">
    <dc:format>image/svg+xml</dc:format>
    <dc:type
       rdf:resource="http://purl.org/dc/dcmitype/StillImage" />
    <dc:title />
  </cc:Work>
</rdf:RDF>
</metadata>
  <path
     style="display:inline;fill:#ffffff;fill-opacity:1;stroke-width:0.6653524"
     d="m 193.36523,7.7226562 c -17.19779,0.1212926 -33.82765,15.0842518 -32.55859,32.9003908 0.0926,6.679393 2.17637,13.244141 5.50391,19.003906 -5.22324,13.63134 -11.48481,26.841206 -16.56836,40.527347 C 144.45531,85.96255 137.11326,72.124449 133.55859,57.542969 145.92664,38.793844 132.32552,8.773865 109.22656,7.9179688 94.989567,5.6134128 81.03519,15.066664 76.060547,28.230469 70.686425,40.297842 73.35157,55.868465 84.119141,64.101562 87.825524,67.474483 83.007414,72.218155 83.474291,76.287391 80.236465,92.472924 76.929386,108.63036 73.601562,124.79883 67.624391,120.70763 61.49578,116.93178 56.037109,112.16992 60.171751,93.287932 40.26489,73.638285 21.412109,79.664062 3.1036788,84.329624 -5.7735974,109.62764 6.7089844,124.25 c 4.0273626,5.13215 9.9879926,8.23034 15.8691406,10.75586 8.500854,26.24189 21.645896,51.32312 24.873047,78.99805 2.554952,19.08097 1.683398,39.4944 9.685547,57.56054 8.393915,10.07034 22.919115,8.36842 34.029072,13.10828 47.893049,11.99796 99.440349,8.75429 145.658429,-8.37 11.1072,-6.97095 10.54893,-21.86634 11.73437,-33.30664 2.25268,-26.71628 5.67674,-54.10119 17.80469,-78.43359 3.71398,-9.83396 6.23557,-20.48713 11.40234,-29.53711 17.96618,-4.67937 26.74361,-28.79454 15.63282,-43.814452 -8.31709,-12.887765 -28.23059,-16.624066 -39.88282,-6.226563 -7.92515,6.263122 -12.60909,16.972215 -10.45117,27.019535 -5.72848,4.6869 -12.20379,8.39637 -17.94922,13.12695 C 221.1619,105.68933 216.11451,86.154264 213.54688,66.671875 231.82806,52.69403 228.50895,18.971104 206.53516,10.453125 202.446,8.5045885 197.88475,7.6191973 193.36523,7.7226562 Z"
     id="path1390"
     inkscape:connector-curvature="0" />
  <path
     sodipodi:nodetypes="ccsccccccccccccccccccccccccccccccccccccccccccccccscccccccccccccccccccccccscsccccccccccccccccccccccccccccccccccccccccccccsccc"
     inkscape:connector-curvature="0"
     style="display:inline;fill:#000000;fill-opacity:1;stroke-width:0.6653524"
     d="m 105.05002,18.284677 c -2.84114,0.06043 -6.425138,0.993724 -8.784668,2.059454 -4.670925,2.109747 -9.13515,7.667202 -10.59375,11.300438 -1.30569,3.252349 -2.384978,8.801009 -1.27881,13.281705 1.131922,4.352098 3.124012,8.407684 7.69629,12.603087 1.897635,1.748226 4.090552,2.623428 4.703617,3.337022 0.704918,1.124595 -0.607455,7.106866 -2.289555,14.130419 -1.23669,5.1637 -2.550667,12.101373 -5.944335,29.310468 -2.048572,9.99741 -4.03746,20.0008 -5.84619,28.22524 -0.660397,4.01597 -1.56864,9.28496 -2.185545,9.57447 -0.744135,0.34921 -5.846672,-3.35993 -12.752931,-8.54585 -2.36502,-1.58437 -7.583643,-5.26758 -9.405762,-6.65846 -3.70887,-2.8624 -9.492592,-5.88979 -12.405762,-8.60697 -2.00696,-1.56492 -2.531106,-2.07726 -0.839355,-6.72519 0.835599,-2.11709 0.757745,-5.5595 0.509765,-7.25074 -0.52951,-3.61123 -2.969812,-7.621885 -5.277832,-10.319388 -4.50605,-4.040191 -8.146084,-4.444707 -11.961914,-4.41963 -5.23513,0 -8.116186,1.210871 -11.288086,4.284528 -3.2295,3.184729 -5.618852,8.38379 -5.607422,12.86398 0.0384,4.44371 1.2606,7.11968 2.86377,10.08185 1.89363,3.49883 7.860157,6.82007 10.097167,7.16909 4.654191,0.73745 6.175008,1.06041 7.753419,6.19428 1.254819,3.57085 3.465784,10.20257 4.458984,13.01609 0.99319,2.81352 2.452881,7.11596 4.16748,11.37129 4.04968,11.75028 8.392972,21.50516 11.937012,31.61426 1.24132,5.02114 2.544082,10.69447 3.357422,17.10352 0.5793,5.75544 1.448413,10.90524 2.459473,19.65234 0.73004,6.80124 2.25973,17.54393 3.37207,26.38769 0.8834,5.62549 1.531238,12.78837 2.923828,15.57568 1.95362,3.19251 6.212671,3.45227 10.769532,4.76368 8.7144,2.0942 19.46169,5.4878 28.744628,7.38281 13.64048,2.94328 28.12713,4.06437 41.08887,4.20996 3.39118,-0.11967 13.91718,-0.4075 19.48828,-0.5083 9.66022,-0.46479 18.55371,-1.87038 27.66064,-3.27539 6.85793,-1.12979 13.46927,-2.48853 19.83545,-3.96387 7.18486,-1.85508 13.94511,-4.18869 21.00293,-7.1792 1.92802,-2.39685 2.43914,-6.6478 2.83741,-10.22167 1.83939,-12.39272 2.13258,-16.64108 3.35009,-27.46583 1.21371,-10.531 2.86363,-29.3318 5.98828,-39.41015 1.73682,-6.29678 8.78032,-21.92961 10.7754,-28.24805 2.70639,-7.64987 4.34031,-11.77331 7.09863,-19.74893 0.75942,-2.81328 2.27017,-6.28933 3.31201,-9.6796 1.17747,-2.28507 0.55151,-6.1456 7.14257,-6.6342 4.15767,-0.92858 9.14774,-4.19115 11.50196,-8.54575 0.92436,-1.61363 3.08311,-7.01622 1.9336,-12.85379 -1.74348,-5.649672 -5.50537,-11.782661 -12.36329,-13.315999 -8.3651,-1.870313 -15.49473,0.953527 -19.89258,8.913729 -1.33239,2.67975 -2.42758,5.62518 -1.84423,10.9391 1.48863,5.37002 2.13621,5.37247 0.94921,6.89585 -0.39001,0.73646 -1.93131,1.58288 -4.97461,3.63734 -2.6993,1.82223 -6.38226,4.52967 -9.37793,6.77004 -3.83083,2.88102 -13.95874,10.08827 -16.97607,12.09099 -3.1012,2.17309 -4.50214,3.14839 -4.78271,2.93866 -0.39927,-0.12011 -1.61306,-7.059 -2.74073,-12.17187 -2.31912,-11.49324 -4.51433,-20.84745 -6.95214,-32.637256 -1.97688,-9.889701 -4.21974,-21.158408 -5.87842,-30.049581 -0.68979,-4.881234 -1.5958,-5.868541 1.26269,-7.113153 2.33029,-1.014614 5.9213,-4.461655 8.2295,-8.33876 1.51848,-2.944754 2.88837,-5.419002 3.11425,-11.687161 -0.0378,-10.633665 -7.41769,-17.229961 -10.89844,-19.045243 -3.93504,-1.913392 -5.03735,-3.017901 -10.78857,-3.008013 -5.8291,0.01024 -8.68773,1.243237 -12.21533,3.484855 -5.48714,3.486793 -9.63314,11.061857 -9.88916,16.473589 -0.26303,5.559763 0.5307,12.118924 5.63965,17.526243 1.30698,1.839647 0.50132,5.249577 0.0893,6.341418 -4.52873,9.533846 -6.68456,15.618929 -11.26318,25.985282 -3.85727,9.800126 -6.87088,17.79325 -10.38867,26.19552 -1.90044,4.68259 -5.03529,12.92792 -5.75538,12.89642 -0.75198,0.1144 -4.2864,-8.6512 -5.44629,-11.90662 -3.90054,-10.17441 -7.90647,-20.675215 -11.1914,-28.484019 -3.45004,-7.988938 -5.76388,-13.718287 -8.97802,-22.21372 -1.21208,-2.834885 -1.94723,-4.413519 -2.41114,-5.814503 -0.71346,-1.71745 -0.523,-2.895479 0.85547,-4.357899 2.98308,-3.16474 5.01709,-8.932498 5.01709,-12.313937 0,-3.998282 0.0215,-7.867724 -2.25146,-12.128055 -1.75044,-3.28088 -5.64371,-7.602133 -9.78077,-9.710116 -2.62357,-1.336803 -6.83247,-2.103172 -10.48535,-2.025524 z m 49.3249,150.951983 c 7.53885,0.0177 14.89239,0.31737 21.17432,1.16895 7.68221,1.30861 13.91197,1.87071 21.83642,3.52881 6.05159,1.40243 11.06384,2.72864 19.05908,4.72705 3.99846,1.44482 9.04156,3.77852 11.36719,5.11523 2.54996,2.29311 0.54195,5.86216 -0.14941,7.59229 -1.97065,4.4262 -3.98346,2.35884 -12.52734,-0.19776 -7.67892,-2.76504 -18.39678,-5.52534 -29.47119,-7.70654 -11.95926,-2.90663 -45.11051,-3.24407 -60.31348,-1.1748 -8.78426,1.28386 -16.16598,2.72582 -24.2666,4.55566 -9.329096,2.05137 -12.408626,3.46703 -18.761718,5.58838 -3.633683,0.83389 -7.880147,3.79493 -11.266118,-0.64306 -0.71535,-2.51598 -1.756759,-4.9957 -1.155762,-7.021 0.534939,-1.97567 5.768892,-3.44834 11.597172,-5.40527 2.449493,-0.60108 11.184728,-3.07436 13.445798,-3.4585 11.714688,-2.92748 23.310708,-5.02698 37.148438,-6.14209 7.0217,-0.28079 14.74436,-0.54502 22.2832,-0.52735 z m -74.670453,39.13768 c 1.573215,0.006 3.679958,0.15671 6.53613,0.47607 11.424713,1.27751 14.513103,3.62456 1.299615,10.19716 -6.090188,3.02934 -9.813997,5.43344 -11.68536,3.25744 -1.758347,-1.67799 -2.585121,-8.39632 -1.787109,-10.84571 0.994014,-1.83709 0.917079,-3.10501 5.636724,-3.08496 z m 137.405313,-0.29456 c 5.25726,0.028 6.09906,1.4327 6.8584,2.82422 1.06043,1.94325 -0.24075,9.12047 -1.53955,10.65527 -1.83678,2.82942 -4.04237,0.60183 -13.77722,-4.1466 -9.87966,-4.81904 -8.29867,-8.40961 5.92273,-9.25672 0.86668,-0.0423 1.76411,-0.0792 2.53564,-0.0762 z m -66.91992,19.80776 c 7.58655,0.027 14.84286,0.30955 20.05225,0.72071 10.41877,0.8223 23.36816,3.01629 30.45557,4.96728 7.08743,1.951 12.8844,3.54005 15.06591,4.33594 3.25213,1.18649 4.6158,1.97222 4.49415,7.51025 -0.11829,5.38527 -1.86621,6.09922 -4.56592,4.89258 -8.16062,-2.81704 -19.60944,-5.98044 -26.01416,-6.93897 -4.36009,-1.01208 -14.32644,-2.39142 -18.63282,-2.61327 -9.31875,-0.56934 -16.68639,-0.7978 -27.05127,-0.52881 -6.28692,0.0287 -17.29017,0.51019 -24.40136,1.50146 -9.73498,1.38273 -19.896411,3.65193 -29.926761,6.86133 -9.97893,3.6092 -10.99821,3.32533 -11.125485,-2.89453 -0.127267,-6.21986 0.827055,-6.40395 4.970213,-8.0918 2.768407,-0.89713 8.55099,-2.48705 17.033203,-4.7959 8.8551,-1.93597 16.93924,-3.08362 27.60791,-4.11475 6.53291,-0.60873 14.45202,-0.83849 22.03857,-0.81152 z"
     id="path827" />
  <path
     style="display:inline;fill:#ffffff;fill-opacity:1;stroke-width:0.6665436"
     d="m 140.31893,211.62553 c -2.4845,-1.70564 -11.6594,-5.22275 -11.67916,-7.02811 -0.15095,-1.44068 4.4832,-2.88443 6.95942,-4.10328 4.64926,-1.97808 8.44533,-3.66074 12.06948,-4.79418 2.40567,-0.72464 5.5695,0.68098 7.21277,1.4853 3.5405,1.27701 6.47247,2.72698 9.97564,4.13668 9.12169,3.27879 4.18766,4.81795 -0.37563,7.06248 -4.81601,2.65723 -11.99101,5.72346 -12.63701,6.05673 -4.00221,1.20066 -7.38725,-1.16284 -11.52551,-2.81562 z"
     id="path827-0"
     inkscape:connector-curvature="0"
     sodipodi:nodetypes="ccccccccc" />
</svg>
