<?xml version="1.0" encoding="UTF-8" standalone="no"?>
<svg
   xmlns:dc="http://purl.org/dc/elements/1.1/"
   xmlns:cc="http://creativecommons.org/ns#"
   xmlns:rdf="http://www.w3.org/1999/02/22-rdf-syntax-ns#"
   xmlns:svg="http://www.w3.org/2000/svg"
   xmlns="http://www.w3.org/2000/svg"
   xmlns:sodipodi="http://sodipodi.sourceforge.net/DTD/sodipodi-0.dtd"
   xmlns:inkscape="http://www.inkscape.org/namespaces/inkscape"
   version="1.0"
   width="300.000000pt"
   height="300.000000pt"
   viewBox="0 0 300.000000 300.000000"
   preserveAspectRatio="xMidYMid meet"
   id="svg2"
   inkscape:version="0.92.5 (2060ec1f9f, 2020-04-08)"
   sodipodi:docname="br.svg">
  <defs
     id="defs12" />
  <sodipodi:namedview
     pagecolor="#ffffff"
     bordercolor="#666666"
     borderopacity="1"
     objecttolerance="10"
     gridtolerance="10"
     guidetolerance="10"
     inkscape:pageopacity="0"
     inkscape:pageshadow="2"
     inkscape:window-width="1920"
     inkscape:window-height="1017"
     id="namedview10"
     showgrid="false"
     inkscape:zoom="2.9266434"
     inkscape:cx="181.68995"
     inkscape:cy="406.97921"
     inkscape:window-x="-8"
     inkscape:window-y="-8"
     inkscape:window-maximized="1"
     inkscape:current-layer="svg2"
     inkscape:pagecheckerboard="true" />
  <metadata
     id="metadata4">
Created by potrace 1.12, written by Peter Selinger 2001-2015
<rdf:RDF>
  <cc:Work
     rdf:about="">
    <dc:format>image/svg+xml</dc:format>
    <dc:type
       rdf:resource="http://purl.org/dc/dcmitype/StillImage" />
    <dc:title />
  </cc:Work>
</rdf:RDF>
</metadata>
  <path
     style="display:inline;fill:#ffffff;fill-opacity:1;stroke-width:0.73670816"
     d="M 150.48635,0.60874175 C 139.41959,1.2188191 125.10317,-1.3943264 117.37238,8.7626482 c -3.64439,6.3662148 -1.21354,14.2956448 -2.43632,20.8236318 -3.25978,-0.01414 -9.5442,2.5882 -7.80527,-2.844433 C 107.75941,18.325007 106.13352,5.9210602 95.951965,4.3657732 82.992261,1.8029708 69.730448,5.4717862 56.942004,6.5211442 50.032299,8.4019432 46.228836,15.887137 47.738555,22.67842 c -0.147446,16.040001 -1.684892,32.484711 1.250519,48.272119 4.571252,10.283494 17.958606,14.388863 20.316443,25.751648 -0.306865,30.847003 1.485373,61.933633 -0.737635,92.619443 -4.327851,4.95532 -11.416821,6.75336 -15.848437,11.8125 -5.917608,5.43604 -8.189626,13.96947 -6.099023,21.61935 -2.696601,3.60369 -8.045193,4.70944 -10.229297,9.07675 -6.570321,8.7051 -2.830004,19.92143 -3.958008,29.75479 -0.125971,8.4662 0.118939,19.45707 8.053418,24.46171 11.001551,5.29907 23.396651,0.54795 34.981991,2.13946 61.886724,-0.83552 123.865934,1.31691 185.696434,-0.85977 9.89907,-4.14732 10.01973,-16.80979 8.70762,-25.83164 0.41749,-11.29425 2.46927,-25.76876 -7.70274,-33.68613 -3.08724,-1.48305 -8.08647,-3.52893 -5.53095,-7.72529 1.42252,-10.65312 -5.57756,-20.67525 -14.89483,-25.14464 -3.54862,-2.60766 -10.22638,-4.4565 -8.22993,-10.2067 0.49314,-30.95569 -2.73507,-62.45114 1.75972,-92.978353 7.81456,-8.609399 20.36042,-16.383659 19.92949,-29.52305 -0.68742,-16.843495 3.56942,-35.03214 -3.25048,-51.02959 -8.84766,-9.2431801 -22.96701,-4.4946688 -33.99171,-7.5325201 -9.10902,-1.5013278 -20.73262,2.9532813 -21.57422,13.3649411 -0.74241,4.163546 -0.0525,8.418008 -0.17022,12.589746 -2.81977,-0.492345 -9.94657,2.644731 -8.38154,-2.536816 1.05157,-9.543485 -1.37191,-22.4589638 -12.16522,-25.1323237 -8.18986,-2.44491775 -16.82757,-0.5588037 -25.1836,-1.34531255 z"
     id="path827"
     inkscape:connector-curvature="0" />
  <path
     sodipodi:nodetypes="scccscccccscscssssscscssccccccscccccccscssscssccczcczcscccczsscccssc"
     inkscape:connector-curvature="0"
     id="path849"
     d="m 44.733825,276.03181 c -1.354848,-1.71477 -0.880263,-1.26443 -1.144538,-24.78103 0.242957,-13.98189 -0.391268,-11.3992 3.77883,-14.72453 3.139641,-2.12174 5.005957,-3.62273 8.176561,-5.42316 2.241147,-1.45865 1.811041,-1.12872 1.723654,-10.16599 -0.106281,-10.99126 -1.269212,-8.65626 6.102989,-13.92585 4.351689,-3.06826 11.453051,-8.39348 15.429852,-11.41107 2.041623,-1.23738 1.742339,-2.89839 1.861417,-5.78118 C 80.496564,168.93518 80.507656,108.75487 80.439381,101.37494 79.900969,87.568106 81.817769,91.744763 75.223077,83.963241 72.65362,80.931363 67.782497,75.679789 64.398365,72.29307 L 58.245399,66.135398 58.502383,41.886756 C 58.643724,28.550003 58.26925,18.108458 58.762779,17.556042 59.416835,16.546159 92.961874,13.35899 94.89953,15.024611 c 0.868053,0.746182 1.073395,3.254216 1.073395,13.110216 0,8.877723 0.245736,12.377166 0.904849,12.885854 0.879064,0.678438 6.272056,0.262503 22.382836,-0.522145 9.05041,-0.440786 6.60628,0.925456 7.04198,-14.619408 0.32597,-11.629944 -0.31564,-11.9318 1.63017,-12.794587 2.94655,-1.628091 43.34288,-2.324633 46.71732,-0.03455 1.43747,0.975552 1.8741,1.900856 1.97004,7.08731 0.0598,3.226343 -0.0255,9.143926 0.0222,12.718802 0.0992,7.425565 0.68545,7.107597 2.73923,7.477451 2.08152,0.374847 13.93948,0.179685 21.99496,0.839659 5.80588,0.309132 6.03436,2.514238 5.89085,-12.969276 -0.0863,-16.72936 -0.18082,-13.366198 9.99321,-13.185377 7.10257,0.3209 18.08008,1.064116 24.07541,2.015165 3.59889,0.71424 3.44453,-0.0869 3.08937,23.23472 0.10678,12.425202 0.12999,24.996809 -0.19422,25.882447 -0.66599,1.819133 -8.01785,8.883393 -16.23456,17.411794 -3.03091,3.145879 -5.02373,5.993359 -5.44697,6.836972 -0.50466,1.005877 -0.36788,12.186572 -0.39641,32.323232 -0.0318,21.21359 0.1342,44.37601 0.0818,64.59239 -0.11354,7.28418 0.24874,7.45373 1.80787,8.50663 4.2068,3.35939 8.0607,5.87306 12.27409,9.15553 0.99532,0.52296 5.08251,3.38391 6.80998,4.94199 3.0628,2.42236 2.1615,2.48492 2.08801,9.61422 0.33469,12.51792 -1.8728,9.31984 6.55437,14.71602 4.02359,2.57643 6.25648,4.16257 6.83334,5.60505 0.5393,1.34853 0.38411,8.47562 0.41317,18.80999 0.0361,12.86183 0.38648,16.33563 -0.70779,17.67343 -2.00786,2.45467 -12.85292,0.57035 -97.99582,0.66633 -53.74838,0.0606 -101.153423,0.33626 -105.928125,0.31384 -7.281311,-0.0574 -8.468793,0.2089 -9.650314,-1.2865 z m 142.959745,-72.1175 c 12.4966,0.0427 21.1244,0.50658 21.98754,-0.43698 0.84593,-0.80258 0.7557,-2.66474 0.7557,-8.65423 -0.004,-9.55687 0.88514,-8.37712 -13.70061,-8.50916 -19.83241,-0.25649 -80.1875,-0.13822 -92.64537,-0.20973 -12.457891,-0.0715 -11.146461,-0.0863 -11.372239,8.62162 0.227891,11.75405 -3.164336,9.1197 18.312649,9.46813 8.92931,-0.0209 16.95703,-0.0306 26.77875,-0.10301 9.82172,-0.0724 35.1023,-0.20654 49.88358,-0.17659 z M 117.30273,95.632747 c 19.20098,-2.033474 49.0485,-2.040288 75.86751,0.58084 10.4769,1.55603 11.83603,3.22013 16.16493,-3.42903 3.43884,-8.975307 0.71654,-9.434744 -2.06085,-10.45221 -2.7774,-1.017466 -8.14595,-2.433858 -18.24849,-3.659057 -10.10254,-1.225198 -31.81923,-1.991968 -38.81112,-1.964844 -6.75676,0.02621 -29.53706,1.064023 -33.76378,1.776705 -10.62146,1.385499 -14.14881,2.04651 -18.274367,3.208976 -2.517469,0.709353 -4.048181,0.55564 -5.176932,2.409177 -1.582243,2.051772 0.191949,6.975298 1.48099,9.547787 1.165941,2.160796 3.945815,3.750546 4.888457,3.882676 1.214212,0.1702 9.993722,-1.06015 17.933652,-1.90102 z"
     style="fill:#000000;fill-opacity:1;stroke-width:0.73670816" />
</svg>
