<?xml version="1.0" encoding="UTF-8" standalone="no"?>
<svg
   xmlns:dc="http://purl.org/dc/elements/1.1/"
   xmlns:cc="http://creativecommons.org/ns#"
   xmlns:rdf="http://www.w3.org/1999/02/22-rdf-syntax-ns#"
   xmlns:svg="http://www.w3.org/2000/svg"
   xmlns="http://www.w3.org/2000/svg"
   xmlns:sodipodi="http://sodipodi.sourceforge.net/DTD/sodipodi-0.dtd"
   xmlns:inkscape="http://www.inkscape.org/namespaces/inkscape"
   version="1.0"
   width="300.000000pt"
   height="300.000000pt"
   viewBox="0 0 300.000000 300.000000"
   preserveAspectRatio="xMidYMid meet"
   id="svg2"
   inkscape:version="0.92.5 (2060ec1f9f, 2020-04-08)"
   sodipodi:docname="wk.svg">
  <defs
     id="defs12" />
  <sodipodi:namedview
     pagecolor="#ffffff"
     bordercolor="#666666"
     borderopacity="1"
     objecttolerance="10"
     gridtolerance="10"
     guidetolerance="10"
     inkscape:pageopacity="0"
     inkscape:pageshadow="2"
     inkscape:window-width="1086"
     inkscape:window-height="811"
     id="namedview10"
     showgrid="false"
     inkscape:zoom="10.620141"
     inkscape:cx="204.32093"
     inkscape:cy="142.35021"
     inkscape:window-x="156"
     inkscape:window-y="156"
     inkscape:window-maximized="0"
     inkscape:current-layer="svg2"
     inkscape:pagecheckerboard="true" />
  <metadata
     id="metadata4">
Created by potrace 1.12, written by Peter Selinger 2001-2015
<rdf:RDF>
  <cc:Work
     rdf:about="">
    <dc:format>image/svg+xml</dc:format>
    <dc:type
       rdf:resource="http://purl.org/dc/dcmitype/StillImage" />
    <dc:title />
  </cc:Work>
</rdf:RDF>
</metadata>
  <path
     style="fill:#ffffff;fill-opacity:1;stroke-width:0.6902864"
     d="M 110.54369,-2.6522251 C 99.91543,-1.9022846 95.768843,10.667542 97.940695,19.693046 97.821646,30.809336 98.016505,41.927023 97.83916,53.042891 68.133166,37.920987 26.638918,44.836093 7.5780781,73.480977 -9.4739951,101.05515 -4.3237465,138.29202 14.462551,163.66818 c 8.359612,12.20321 19.804497,21.97489 29.496386,32.85557 3.503429,10.09467 2.097365,21.09298 4.472754,31.45898 1.691942,13.7848 2.580275,28.17289 7.854492,41.08535 12.410454,10.79099 29.889723,10.15491 44.819817,14.84971 46.16198,8.52143 95.27545,5.81573 138.91788,-12.06475 10.69479,-8.34658 8.48753,-23.61766 10.84102,-35.1818 1.71442,-13.93457 2.3754,-27.82655 6.25224,-41.32259 22.3938,-19.92221 44.05434,-45.18068 46.63066,-76.34033 2.51602,-26.081972 -9.72519,-55.158654 -34.63974,-66.166405 -20.84392,-10.113455 -46.25061,-9.260599 -66.88009,0.978222 -0.39078,-16.834129 1.43902,-47.3165284 -1.73595,-51.2419996 -4.01419,-7.9918359 -22.65829,-3.9028725 -33.02069,-5.022943 -18.97605,0.046499 -37.95316,-0.030431 -56.92764,-0.2074195 z"
     id="path827"
     inkscape:connector-curvature="0"
     sodipodi:nodetypes="cccccccccccccccccc" />
  <path
     sodipodi:nodetypes="cccccccscccccccccsczzccccccccccccccccccccccccccsccccccccccscccsccscccccccccccccccccccccccccccccccccccccccccccccccccccccccscccccccccccccccccccccccscccccc"
     inkscape:connector-curvature="0"
     id="path851"
     d="m 104.90512,273.34224 c -9.282944,-1.895 -20.031728,-4.09878 -28.490491,-6.61907 -4.471645,-1.31141 -11.310665,-3.45284 -11.665436,-6.0304 -0.400655,-2.78732 -2.340458,-11.26446 -2.854884,-16.521 -1.112347,-8.84375 -2.939175,-19.12725 -3.669211,-25.9285 -1.011066,-8.74707 -1.290497,-13.21488 -2.278099,-18.69662 -0.725663,-5.77222 0.498397,-8.77991 -6.967912,-15.86144 -2.254426,-2.65442 -6.791563,-6.35953 -12.798919,-12.6402 C 31.569102,166.22415 20.843487,153.155 18.106655,148.75954 14.737045,143.29805 12.110099,138.62123 10.212975,129.54 8.8542135,123.18479 8.2020343,113.67173 8.2097529,110.28358 8.8436505,97.659374 10.580731,89.727625 15.902893,80.892935 21.603142,71.849865 32.319295,64.425537 36.740161,62.545132 43.00837,59.054404 51.71293,57.399621 61.142936,57.0868 c 4.818427,-0.117449 13.451711,0.384998 17.544349,1.370527 7.183708,1.957676 14.224711,4.113792 20.614538,8.548001 4.677647,2.863419 9.728937,9.347624 9.556427,1.234983 -0.24727,-3.347214 0.0367,-15.065829 0.0793,-27.880872 0.0885,-26.661487 -0.23826,-30.114198 0.67559,-31.290607 0.96868,-1.054045 5.9752,-0.480874 38.71072,-0.456779 32.73551,0.0241 40.73496,-0.420164 42.06681,0.820289 1.33185,1.240451 1.07462,12.391551 1.03073,22.185045 -0.13586,24.051615 0.0789,28.981215 0.20632,34.670592 0.0441,4.375275 -0.21393,7.78481 3.69358,5.207817 3.07819,-2.398355 5.02035,-3.735199 6.66841,-4.862325 4.09781,-2.802552 5.40927,-3.44382 13.12761,-6.176248 7.60453,-2.86786 14.41809,-3.557241 21.68466,-3.456446 11.08391,0.154906 14.57539,0.89962 21.91315,3.218023 7.34187,2.652572 13.51202,6.476389 21.10744,14.187425 7.19474,8.580382 9.7331,12.850104 12.62874,30.468735 1.08719,8.88558 -0.36488,22.60096 -2.95106,30.13284 -3.13751,10.40789 -11.38616,20.80802 -19.84952,31.25757 -5.50013,5.79126 -9.33424,9.13202 -14.73916,14.42437 -3.54943,2.77496 -6.10234,7.32303 -7.81252,8.80114 -3.12466,10.07834 -4.84987,24.91636 -6.06358,35.44736 -1.21751,10.82476 -1.5116,15.07338 -3.35099,27.4661 -0.39827,3.57388 -1.27939,8.44535 -3.2074,10.34623 -7.05781,2.99049 -14.31515,5.19948 -21.50002,7.05456 -6.36618,1.47535 -12.9779,2.8335 -19.83583,3.9633 -9.10693,1.405 -17.99993,2.81102 -27.66014,3.27581 -5.57111,0.1008 -16.09659,0.38761 -19.48778,0.50728 -12.96174,-0.14559 -27.44768,-1.26599 -41.08816,-4.20928 z m 52.9928,-8.04118 c 22.89964,-1.40443 31.98387,-2.73707 43.98965,-5.32842 4.3338,-1.08994 21.12465,-3.90477 21.73146,-8.18762 0.8238,-2.68614 -6.05214,-4.91969 -11.21846,-7.33143 -11.08226,-4.65395 -17.84873,-6.09835 -28.11221,-7.80111 -10.18785,-1.35682 -26.48269,-2.5589 -36.72823,-2.2036 -19.92547,0.69099 -35.06199,2.88329 -40.12171,4.24924 -4.6545,1.09155 -11.351201,2.49108 -15.563157,3.98674 -7.36323,2.50899 -13.719034,4.78177 -15.148885,7.24011 -1.008166,3.08999 3.152132,4.56181 9.352407,6.87712 10.174234,2.63455 21.071275,4.49083 30.619855,5.91358 12.27882,1.70486 27.3411,2.92808 41.19928,2.58538 z M 84.213239,232.45325 c 7.051423,-2.04204 15.153576,-3.91223 24.453981,-6.02222 10.1606,-2.28185 21.99468,-4.02062 44.2994,-4.28316 9.23156,0.0207 26.12723,1.27664 29.51841,1.70238 6.10597,0.76658 16.05505,2.82884 23.50435,4.89831 6.76092,2.2953 9.51607,2.67733 13.72748,4.78087 6.46273,3.26157 6.32568,1.72548 7.63548,0.39574 0.78285,-0.79479 1.09981,-2.41235 1.09981,-5.61266 0,-3.7942 0.73304,-5.81839 -0.56777,-6.9711 -2.71221,-1.98661 -6.17463,-4.43391 -9.93925,-6.89657 -4.82161,-3.36264 -8.42151,-6.22528 -7.96232,-7.74436 0.62955,-2.74507 7.22478,-3.54666 11.30383,-4.02946 4.78928,-0.6437 7.54282,-1.18597 9.44703,-1.95467 1.93839,-1.15792 3.94849,-10.90758 1.98991,-12.7885 -3.21429,-2.08562 -17.84439,-5.97759 -26.06229,-7.60332 -10.12285,-3.08119 -20.31394,-3.98347 -30.00197,-5.21473 -17.33522,-2.12413 -41.17702,-1.42838 -56.61866,0.35262 -12.49848,1.50206 -29.077107,4.97564 -43.24851,9.25624 -9.225842,2.70037 -9.92245,3.7284 -9.394396,7.17536 0.228898,3.58981 0.384166,6.11288 1.517621,7.73502 1.286916,2.07988 7.46836,2.19298 13.279543,3.20965 4.038985,0.61816 8.201668,0.71911 8.782072,3.54696 0.233258,2.32209 -5.620983,5.95403 -9.090364,8.56417 -3.246515,2.24907 -4.826635,3.59695 -7.921427,5.80007 -2.779045,1.97701 -1.593592,4.13093 -1.342933,6.80332 0.442194,1.76901 0.04731,6.28968 1.525585,7.35473 2.24969,0.28423 6.979998,-1.05133 10.065388,-2.45469 z M 95.831492,165.4405 c 8.503108,-2.15113 20.766228,-3.92877 29.337108,-4.73539 4.93372,-0.30165 14.49243,-0.7316 15.51654,-1.74011 1.18986,-1.16907 0.5361,-5.24417 -0.69671,-10.00387 C 134.55106,133.07395 125.7458,117.28062 118.23402,107.22866 113.58593,100.51956 107.69839,91.876664 96.603585,83.1509 88.570285,76.97917 82.045507,71.786478 66.225049,70.875645 58.339277,70.852775 48.18358,72.145482 40.028957,78.131103 31.506399,84.040566 27.925522,89.029476 24.49745,96.780895 20.71281,111.0241 21.785715,116.64994 23.205011,125.44455 c 1.167458,5.21929 4.202656,13.21435 10.920886,21.75183 7.313105,9.75178 16.05167,16.7529 21.039023,21.96526 2.705977,2.59621 6.300925,5.85954 9.257101,5.13844 7.370118,-1.16219 16.354882,-4.94283 31.409471,-8.85958 z m 155.210228,-1.60626 c 8.10948,-8.16566 15.99919,-15.62243 21.11469,-24.86767 4.93463,-7.83916 7.84635,-21.22499 6.47597,-30.79157 -1.20779,-8.11803 -3.47019,-17.148108 -10.17736,-23.967158 -6.16193,-5.796735 -13.64359,-10.217296 -21.13306,-12.222291 -7.82977,-2.201091 -17.83954,-0.735531 -22.80376,0.409636 -10.13242,2.207568 -13.74064,5.653491 -23.18632,12.951342 -5.75979,4.910482 -9.93477,9.723561 -13.98836,14.966491 -5.37211,6.56889 -8.29636,11.2294 -14.2605,21.50807 -4.71478,7.8927 -7.50141,15.11228 -10.34606,21.17101 -1.7498,3.51722 -3.90931,13.82161 -2.39045,15.79452 1.21831,1.14878 4.25406,0.75724 8.29938,1.04129 15.3437,1.60331 28.43348,3.12703 42.67313,7.18938 7.78584,2.17921 20.82459,7.33765 26.39893,7.34012 3.54815,-0.25749 9.78492,-6.68174 13.32377,-10.52317 z m -97.34387,-32.60486 c 4.64331,-9.94074 12.83051,-23.64508 19.80403,-33.149426 3.05332,-4.161435 2.0314,-6.237743 -3.08021,-6.258247 -1.68167,-0.0069 -12.07162,-0.05842 -23.08879,-0.114796 -17.85571,-0.0914 -19.9174,-0.61952 -21.63032,1.507331 -1.68479,2.692045 3.78964,6.788188 9.73022,17.333048 2.57398,4.25263 7.1324,11.24454 9.53308,17.2225 5.52112,12.53165 5.1265,11.17849 8.73199,3.45959 z m 16.64077,-51.250541 c 3.02507,0.258512 3.22705,-1.852991 1.04215,-3.480519 -4.61401,-4.399099 -17.4082,-17.706215 -20.12952,-19.19216 -1.75353,-0.974922 -5.81475,3.915352 -8.87818,6.761712 -1.3943,1.295498 -5.09194,4.970209 -8.20028,7.798122 -5.73496,5.306399 -7.73612,7.512953 -4.04264,7.948557 5.05309,0.187762 37.39948,0.28439 40.20847,0.164288 z M 138.54325,56.217154 c 2.35498,-2.320299 5.1431,-4.665338 5.13428,-5.857107 -0.009,-1.277062 -3.14222,-3.652295 -8.27153,-8.486532 -9.02333,-8.504257 -11.53865,-11.765318 -13.44456,-11.145039 -1.66179,0.533757 -0.9426,5.550223 -1.20236,19.248717 -0.23906,13.886757 -0.60845,20.78123 0.49222,20.864847 1.46052,0.786338 2.05223,-0.378464 7.08387,-4.982976 3.25945,-2.982752 7.85307,-7.321611 10.20807,-9.64191 z m 42.05844,9.389169 c 0.14549,-9.021946 -0.30601,-24.979542 -0.36935,-30.573462 -0.0358,-5.069025 -2.11717,-5.217585 -6.58205,-0.922626 -2.06665,1.987998 -9.65824,9.35612 -12.59786,12.085565 -5.56963,5.171415 -4.9177,3.61146 2.29932,11.055286 3.01439,2.664577 8.46679,7.736737 10.8288,9.983815 5.77042,5.234753 6.60887,4.635769 6.42114,-1.628578 z M 153.95332,41.302227 c 6.53283,-6.030125 12.15297,-11.360649 16.63779,-15.889455 5.66794,-5.113877 0.57672,-5.511626 -2.21721,-5.388272 -1.58313,-0.126266 -7.62216,-0.04493 -12.6936,-0.04966 -10.2506,0.107233 -12.32571,0.140549 -22.47703,-0.02216 -4.30611,-0.06903 -9.77998,-0.620148 -2.47858,5.907179 5.21636,4.90731 14.12177,13.769472 16.34265,15.951794 3.2015,3.085922 3.27187,2.776391 6.88598,-0.509428 z"
     style="display:inline;fill:#00000b;fill-opacity:1;stroke-width:0.6902864" />
  <path
     style="display:inline;fill:#000000;fill-opacity:1;stroke-width:0.6665436"
     d="m 141.99812,204.93691 c -2.4845,-1.70563 -11.37955,-5.4163 -11.39931,-7.65318 -0.014,-1.68565 4.27157,-3.61393 7.1349,-4.91632 4.59916,-2.09193 8.41427,-4.11876 11.76674,-5.14913 2.89389,-0.72464 4.69436,0.45207 7.14886,1.4573 3.41104,1.44962 6.87278,3.32073 10.13256,4.85069 8.61237,4.04218 4.45989,5.44291 -0.62123,8.16953 -4.81601,2.65723 -12.04993,5.72346 -12.69593,6.05673 -4.00221,1.20066 -6.44469,-0.75048 -11.46659,-2.81562 z"
     id="path827-6"
     inkscape:connector-curvature="0"
     sodipodi:nodetypes="ccsccsccc" />
</svg>
