<?xml version="1.0" encoding="UTF-8" standalone="no"?>
<svg
   xmlns:dc="http://purl.org/dc/elements/1.1/"
   xmlns:cc="http://creativecommons.org/ns#"
   xmlns:rdf="http://www.w3.org/1999/02/22-rdf-syntax-ns#"
   xmlns:svg="http://www.w3.org/2000/svg"
   xmlns="http://www.w3.org/2000/svg"
   xmlns:sodipodi="http://sodipodi.sourceforge.net/DTD/sodipodi-0.dtd"
   xmlns:inkscape="http://www.inkscape.org/namespaces/inkscape"
   version="1.0"
   width="300.000000pt"
   height="300.000000pt"
   viewBox="0 0 300.000000 300.000000"
   preserveAspectRatio="xMidYMid meet"
   id="svg2"
   inkscape:version="0.92.5 (2060ec1f9f, 2020-04-08)"
   sodipodi:docname="wn.svg">
  <defs
     id="defs12" />
  <sodipodi:namedview
     pagecolor="#ffffff"
     bordercolor="#666666"
     borderopacity="1"
     objecttolerance="10"
     gridtolerance="10"
     guidetolerance="10"
     inkscape:pageopacity="0"
     inkscape:pageshadow="2"
     inkscape:window-width="1365"
     inkscape:window-height="1008"
     id="namedview10"
     showgrid="false"
     inkscape:zoom="0.90065135"
     inkscape:cx="51.261046"
     inkscape:cy="95.85273"
     inkscape:window-x="459"
     inkscape:window-y="16"
     inkscape:window-maximized="0"
     inkscape:current-layer="svg2"
     inkscape:pagecheckerboard="true" />
  <metadata
     id="metadata4">
Created by potrace 1.12, written by Peter Selinger 2001-2015
<rdf:RDF>
  <cc:Work
     rdf:about="">
    <dc:format>image/svg+xml</dc:format>
    <dc:type
       rdf:resource="http://purl.org/dc/dcmitype/StillImage" />
    <dc:title />
  </cc:Work>
</rdf:RDF>
</metadata>
  <path
     style="display:inline;fill:#ffffff;fill-opacity:1;stroke-width:0.73030066"
     d="M 96.660156,-0.8125 C 85.878532,-0.54984709 80.883635,11.414641 80.117188,20.673828 79.571496,22.42487 79.562129,24.468993 79.199219,26.101562 73.306242,19.92361 62.284426,14.914044 55.068359,21.771484 c -7.981944,8.281496 -3.652858,20.761877 -3.363281,30.830078 0.813717,8.463879 5.400886,16.840389 3.954729,25.303403 -8.501585,16.292734 -15.125307,33.504845 -22.939104,50.081365 -6.4465,10.21912 -20.201784,13.57691 -24.4062499,25.54297 -4.5977714,11.04576 -4.0591952,23.46976 -2.9648437,35.1289 1.8039837,15.02266 12.6555286,30.18673 28.5917966,31.76758 9.322118,1.13588 18.863524,-1.78861 27.898438,1.41211 11.022318,2.35598 24.271132,-1.87579 28.755527,-12.97126 2.426775,-6.12562 7.741736,-9.81695 13.244469,-12.86077 4.04351,-2.28154 7.07622,-6.73915 11.17188,-8.28125 1.46395,0.87829 10.68317,-0.99682 7.82031,1.53516 -13.64491,12.40352 -32.095759,20.19054 -41.210936,37.08398 -10.166371,16.06288 -14.14396,38.25632 -4.169922,55.30859 7.410317,8.37167 19.749891,4.17619 29.402188,5.26525 57.38794,0.49819 114.87891,2.17693 172.21305,-0.28087 8.57456,-1.80066 13.98759,-10.5686 13.22859,-19.03018 5.80569,-42.24737 5.7523,-86.96579 -12.0246,-126.5585 C 266.96629,112.36163 249.138,85.138482 225.28125,64.115234 201.77761,43.231094 171.91913,29.598739 140.5629,26.468782 134.45365,25.177108 127.06676,25.62254 121.86523,22.230469 116.26975,12.12921 109.56938,0.2319442 96.660156,-0.8125 Z"
     id="path816"
     inkscape:connector-curvature="0"
     sodipodi:nodetypes="ccccccccccccccccccccccccc" />
  <path
     sodipodi:nodetypes="ccccccccscccscscscscccssssscccccccsscscccssccsccscccscsscccccccccccccsccccccccscccccccccscccccsccccccsssscsccscsccscssccssscccccccccscssscsssscssssssscscccccccccccsccccccccccssccccccccscsscc"
     inkscape:connector-curvature="0"
     id="path817"
     d="m 203.37793,277.34764 c -0.0907,-0.0791 -16.24057,-0.1765 -35.88842,-0.21656 -19.64786,-0.0401 -43.00218,-0.29177 -51.89849,-0.55936 -8.89631,-0.26758 -19.20849,-0.4479 -22.915951,-0.40068 -5.164917,0.0657 -6.938479,-0.16307 -7.586242,-0.97884 -1.005643,-1.26647 -3.04399,-15.57694 -2.937529,-20.62321 0.118528,-5.61778 4.526757,-17.07363 9.041481,-23.49647 6.683074,-9.26055 13.590991,-16.18621 23.413761,-22.53843 3.41703,-2.46228 9.51697,-6.21698 12.74485,-8.75802 7.63595,-6.01117 12.37945,-14.20071 14.00423,-20.16445 0.63354,-2.3254 0.70858,-3.06455 -0.53983,-4.21557 -1.56894,-1.44655 -2.90875,-0.33255 -7.48669,1.01327 -4.01649,0.7089 -7.32352,1.24259 -13.05408,1.08097 -9.74019,-0.27472 -10.97886,-1.27232 -12.83642,0.78711 -4.64801,4.11563 -4.68181,6.9447 -12.679178,11.25599 -6.14586,3.31316 -7.271349,4.4258 -9.945584,7.65836 -1.86389,2.18216 -3.860909,7.58668 -4.18951,8.33493 -1.688355,3.84452 -6.303627,6.21308 -12.194657,6.27444 -2.209478,0.023 -6.124724,-0.6214 -8.700549,-1.43202 -4.304194,-1.35455 -5.662869,-2.06514 -10.525607,-1.20961 -2.91008,0.51199 -6.949334,1.27652 -8.30239,1.49527 -3.675071,0.59415 -14.387466,-2.95695 -16.851889,-5.65621 -1.052271,-1.15255 -3.109739,-4.68412 -5.523728,-8.46462 -1.867087,-2.92401 -3.064549,-7.64057 -3.146839,-14.32314 -0.04593,-3.73026 -0.136063,-9.64443 0.457659,-11.90107 0.592703,-2.25271 0.611851,-5.4845 0.580929,-7.99565 -0.05042,-4.09403 1.414046,-5.30484 4.864902,-9.3306 3.783023,-4.41327 5.166527,-5.39098 8.695101,-7.64506 2.690408,-1.65422 5.380954,-2.83951 7.015769,-4.86077 3.22042,-3.78323 6.742104,-10.88388 8.153055,-14.21829 1.434668,-2.92198 3.301508,-7.07894 4.409175,-9.86454 1.923162,-3.70351 2.994435,-7.53872 4.630359,-10.84904 1.015533,-2.04664 3.331174,-7.16678 4.966411,-10.889729 2.852962,-6.582609 6.842485,-11.725202 9.135645,-18.616501 0.26262,-0.860688 -0.800482,-4.324874 -1.474607,-5.798516 C 64.397448,64.960457 62.64427,56.693889 61.95157,47.318129 60.825066,32.070808 59.852354,30.051202 63.408672,28.54507 c 2.155303,-0.520972 5.293002,2.526605 10.100887,6.958076 6.867276,6.329627 8.798504,7.797881 10.024938,8.418039 2.632036,1.247745 3.567691,1.704516 4.278272,-6.163613 0.710526,-6.705286 2.96369,-15.861666 4.391625,-21.844598 1.001201,-4.685694 1.208779,-5.810391 5.611275,-6.181002 3.175871,-0.2673512 11.045031,10.159364 14.796421,17.292611 2.9844,5.674834 4.23416,6.954976 6.76409,6.928627 1.11493,-0.01161 3.01212,0.290862 4.21603,0.672164 2.0836,0.659925 3.99819,0.940129 18.00591,2.6352 3.31396,0.401022 8.90971,1.354802 12.43496,2.11951 27.10962,5.832509 40.81886,14.771513 58.64388,28.054825 8.28807,6.134543 18.87298,15.665768 29.08728,29.639134 5.01158,6.855927 11.65486,16.907227 14.76285,22.336227 7.0773,11.69803 14.12288,23.5771 18.56019,36.33406 2.61295,7.77862 4.71729,15.75109 6.23711,23.69556 1.73126,9.07511 2.99546,15.39384 3.91118,37.40533 0.42587,10.23668 -0.63429,26.57524 -2.84172,43.79485 -0.42561,3.32027 -0.94671,7.63451 -1.15795,9.58719 -0.56185,5.19363 -1.10674,5.80997 -5.62423,6.36174 -3.45196,0.42163 -71.79657,1.13942 -72.23374,0.7587 z m 63.13713,-15.22202 c 2.39396,-0.59073 2.43643,-2.7469 -2.03729,-7.08306 -5.30066,-4.23171 -3.63295,-9.17975 -1.02458,-11.86204 2.15648,-2.21757 7.12837,-7.5948 6.97628,-10.57301 -0.0228,-2.43937 -2.41238,-6.23505 -5.40834,-5.3966 -3.8516,-0.6099 -4.97679,-1.72026 -5.02993,-6.8056 -0.17792,-3.92026 0.93397,-5.47477 4.57569,-10.82343 1.8425,-2.16473 3.82979,-4.96793 4.41622,-6.22933 2.8083,-3.52275 1.78892,-9.83268 0.46872,-10.61887 -2.90798,-1.41709 -5.15916,1.26953 -7.1353,1.45964 -3.98432,0.33653 -5.5751,-2.84216 -6.24799,-7.0492 -0.0985,-7.60916 0.66253,-9.9202 3.77862,-14.57325 6.10171,-9.11126 1.7816,-20.17836 -4.015,-14.14356 -0.94621,0.9851 -2.37313,1.79788 -3.17093,1.80619 -2.14866,0.0224 -6.09414,-5.29831 -7.27875,-9.80946 -1.18348,-4.73736 -0.61749,-6.32553 1.00337,-9.25253 1.29489,-1.69187 2.68944,-4.35048 2.34,-7.40712 -0.35081,-3.0687 -0.85976,-4.08581 -2.87519,-5.74593 -1.67068,-1.37615 -3.81921,-0.99109 -4.66389,-0.62036 -0.68094,0.29887 -1.95623,3.52427 -4.70549,3.42187 -2.4966,0.37012 -5.30665,-4.584 -7.49064,-8.96226 -0.96042,-1.92538 -1.29853,-5.74131 0.38517,-9.0133 0,0 2.40442,-2.78166 1.96512,-6.38584 -0.55086,-4.51951 -2.98939,-6.96903 -5.11328,-6.94692 -0.80307,0.008 -1.95872,0.78442 -2.38681,1.56013 -3.88296,4.45058 -7.03803,2.81077 -11.01177,-1.98825 -1.85606,-2.241516 -2.03507,-2.964231 -1.90132,-7.67572 0.16773,-5.908236 -0.66009,-10.936005 -2.39682,-11.950265 -1.0118,-0.638647 -2.98787,-1.900554 -4.33782,2.520468 -0.27099,0.761989 -2.68838,3.741807 -6.14229,1.504129 -5.03265,-2.581778 -5.98545,-4.695463 -8.78467,-14.310163 -1.85782,-6.3812 -4.87621,-8.148842 -5.93785,-3.323865 -0.2482,1.127955 -1.02392,2.550798 -1.72381,3.161871 -1.15184,1.005661 -1.55818,0.986927 -4.2841,-0.197562 -1.65638,-0.719733 -3.56178,-1.72203 -4.23424,-2.227327 -1.55762,-1.170397 -4.92751,-7.272238 -5.63854,-10.209616 -0.66804,-2.759885 -1.78774,-4.169063 -4.05695,-4.555611 -1.51153,-0.257482 -2.71587,1.409637 -2.37303,5.105522 -0.28017,3.335584 -0.56585,3.93888 -1.96091,4.1411 -1.63637,0.237198 -6.71696,-2.286432 -8.28485,-4.115244 -0.45943,-0.535893 -1.45608,-2.563742 -2.21478,-4.50633 -1.32626,-6.808726 -7.72499,-8.658869 -7.92044,-4.67432 -0.12365,1.622487 -0.24894,4.523547 -1.4128,5.578354 -1.76731,1.601739 -3.23917,1.249859 -6.26236,0.291891 -2.1146,-0.670061 -3.71863,-1.814837 -4.85556,-3.46537 -3.22096,-4.675976 -3.46286,-4.802514 -7.57595,-3.963053 -2.04165,0.416693 -4.62061,0.552633 -5.731,0.30209 -3.37209,-0.760853 -7.1656,-4.420212 -8.86075,-8.547405 -0.86432,-2.10434 -1.88307,-4.388465 -2.26391,-5.075836 -0.38083,-0.68737 -1.27103,-2.480146 -1.97823,-3.983945 -1.48453,-3.15681 -1.88405,-3.235233 -2.41561,0.799275 -0.408084,2.197518 -0.764891,4.104524 -1.083121,6.239413 -0.294413,1.975108 -1.006042,5.6068 -1.171845,10.410237 -0.214847,5.001554 -1.130477,9.538514 5.166426,16.631643 4.04915,4.561132 13.28898,6.44579 13.32526,9.392695 0.0273,2.217685 -1.88013,5.320307 -4.42954,5.876364 -2.87364,0.562284 -3.93349,0.374454 -8.1221,-2.592158 -4.200241,-2.974842 -9.205898,-6.157794 -11.18328,-5.546162 -2.252592,0.696763 -3.338782,1.932132 -9.603588,10.922525 -3.541699,5.082551 -3.475549,4.972633 -5.651041,9.390576 -0.868874,1.76449 -3.013177,5.816067 -4.765112,9.003509 -1.751935,3.18743 -4.251127,8.3202 -5.553756,11.40615 -4.141251,9.81066 -7.369925,16.79297 -11.49366,24.85611 -6.638093,12.97947 -7.903699,14.68467 -13.000662,17.51623 -8.180934,4.54484 -10.217293,6.29268 -12.170832,10.4464 -1.710202,3.63633 -1.844831,4.77554 -1.830223,15.48706 -0.203859,6.18949 -1.033423,10.05814 2.510746,15.13819 1.37224,1.96691 3.016562,3.75871 3.65405,3.98179 0.63749,0.22308 3.300788,0.3833 5.918439,0.35603 4.391437,-0.0458 4.907786,-0.21981 6.679231,-2.25179 1.055928,-1.21122 1.913372,-2.72962 1.905434,-3.37423 -0.008,-0.6446 1.06635,-2.70301 2.387307,-4.57427 1.822383,-2.58155 4.476365,-5.82037 6.665185,-6.12299 1.836807,-0.38829 7.706379,0.9826 8.917681,2.65996 1.211382,1.67748 -1.64787,1.91651 -3.929686,6.16794 -2.862554,5.33345 -0.665166,7.32963 3.482806,8.62285 3.324912,0.44012 7.295794,-0.69836 6.964328,-4.75876 -0.24138,-2.95686 8.545848,-11.73752 16.54792,-15.50886 6.481827,-3.05486 9.798341,-2.9373 8.844844,-6.56456 -0.253949,-0.96606 -7.390502,-3.30026 -9.455544,-4.33807 -2.378961,-1.33227 -9.224119,-5.92164 -10.568429,-8.22659 -1.375761,-2.35888 -1.417629,-5.25412 0.810925,-5.80645 1.268885,-0.31449 3.695574,0.49206 8.422682,2.7994 10.590347,5.16925 19.692995,7.32812 33.140795,7.86001 11.76539,0.46534 15.59186,-0.38961 18.9363,-2.23427 1.13121,-0.7566 4.51989,-2.59298 6.34827,-5.50361 7.27431,-11.58006 10.69259,-11.51545 13.10101,-8.84944 2.26352,2.5056 0.005,6.4213 -0.67418,8.67315 -2.86116,9.47932 -4.83391,9.82247 -4.44085,19.6561 0.26012,6.50715 -2.80918,14.47365 -5.85532,18.9709 -3.22102,4.75541 -11.35982,11.32287 -18.15023,16.53851 -7.30613,5.61176 -13.5556,8.96248 -17.55688,12.88564 -7.25939,7.11767 -11.2838,13.43425 -13.280189,17.24173 -1.910699,3.64405 -3.579135,8.39959 -3.678987,13.59923 -0.08269,4.3034 0.743812,6.97359 8.733356,5.43303 5.70168,-0.80981 11.52318,-1.49461 17.2901,-2.39729 12.54768,-1.46066 23.00061,-2.82048 37.22003,-3.96864 15.82995,-1.54496 45.92604,-0.83453 65.31189,0.67518 11.03657,1.58619 20.48966,3.51102 29.62177,5.5783 6.39962,1.05603 10.14754,1.86763 12.97685,0.62031 z M 39.301506,180.66205 c -1.697314,-1.13237 -2.637431,-2.68131 -3.003281,-3.42294 -0.242124,-0.8433 0.292361,-1.92952 2.080552,-2.87777 1.35917,-0.66388 3.669524,-5.43081 4.716966,-7.12269 1.422991,-2.25577 5.075868,-2.00652 7.481121,-1.1728 4.811486,1.53932 4.238897,4.24763 0.202298,6.80029 -1.430875,0.90486 -4.109059,4.43765 -4.981231,6.18149 -0.870119,1.73972 -1.937229,3.14195 -2.451566,3.3343 -0.514336,0.19236 -2.347545,-0.58749 -4.044859,-1.71988 z m 57.54425,-52.21944 c -0.83273,-0.44505 -2.29111,-1.45821 -3.240837,-2.25148 -0.865948,-1.44984 -2.610096,-3.75294 -6.319689,-0.49752 -1.723326,0.8192 -4.74803,0.80176 -5.759943,-0.13122 -1.454836,-1.60377 -0.866024,-4.44778 -0.116363,-7.475 1.401448,-3.84895 1.716539,-5.58127 5.945405,-10.68242 3.370421,-4.47799 6.118964,-4.32483 12.271654,-1.82397 7.153037,3.12868 8.097077,2.0465 13.131077,1.77069 6.07794,-0.333 5.31891,-0.463 7.96887,0.11883 1.87315,0.41126 5.09653,4.04017 5.51474,5.13088 0.65766,1.71525 0.48748,2.23536 -1.25984,3.85032 -2.31358,2.13835 -6.38262,2.55444 -8.76261,0.89607 -3.2482,-2.26334 -5.29044,-0.83389 -7.4612,5.22236 -0.74177,2.0695 -1.8887,4.23421 -2.54873,4.81048 -1.61909,1.41363 -7.464013,2.07661 -9.362534,1.06198 z M 84.116025,63.637721 c 1.782754,-1.3745 0.461225,-4.167895 -3.32257,-8.130283 -2.55272,-2.67321 -4.031787,-4.010993 -4.313906,-6.255552 -0.341081,-2.713671 -0.463721,-4.482671 -2.268158,-3.807834 -1.813509,0.67823 -2.784153,3.671994 -2.725842,8.40735 0.0457,3.711523 0.430179,4.982035 2.350237,7.766422 1.919392,2.783432 4.065914,4.823744 6.095518,4.618358 0.750941,-0.08105 3.27303,-1.981698 4.184721,-2.598461 z"
     style="display:inline;fill:#000000;fill-opacity:1;stroke-width:0.73030066" />
</svg>
