<?xml version="1.0" encoding="UTF-8" standalone="no"?>
<svg
   xmlns:dc="http://purl.org/dc/elements/1.1/"
   xmlns:cc="http://creativecommons.org/ns#"
   xmlns:rdf="http://www.w3.org/1999/02/22-rdf-syntax-ns#"
   xmlns:svg="http://www.w3.org/2000/svg"
   xmlns="http://www.w3.org/2000/svg"
   xmlns:sodipodi="http://sodipodi.sourceforge.net/DTD/sodipodi-0.dtd"
   xmlns:inkscape="http://www.inkscape.org/namespaces/inkscape"
   version="1.0"
   width="300.000000pt"
   height="300.000000pt"
   viewBox="0 0 300.000000 300.000000"
   preserveAspectRatio="xMidYMid meet"
   id="svg2"
   inkscape:version="0.92.5 (2060ec1f9f, 2020-04-08)"
   sodipodi:docname="wq.svg">
  <defs
     id="defs12" />
  <sodipodi:namedview
     pagecolor="#ffffff"
     bordercolor="#666666"
     borderopacity="1"
     objecttolerance="10"
     gridtolerance="10"
     guidetolerance="10"
     inkscape:pageopacity="0"
     inkscape:pageshadow="2"
     inkscape:window-width="1497"
     inkscape:window-height="946"
     id="namedview10"
     showgrid="false"
     inkscape:zoom="12.801435"
     inkscape:cx="192.61298"
     inkscape:cy="135.78053"
     inkscape:window-x="26"
     inkscape:window-y="26"
     inkscape:window-maximized="0"
     inkscape:current-layer="svg2"
     inkscape:pagecheckerboard="true" />
  <metadata
     id="metadata4">
Created by potrace 1.12, written by Peter Selinger 2001-2015
<rdf:RDF>
  <cc:Work
     rdf:about="">
    <dc:format>image/svg+xml</dc:format>
    <dc:type
       rdf:resource="http://purl.org/dc/dcmitype/StillImage" />
    <dc:title />
  </cc:Work>
</rdf:RDF>
</metadata>
  <path
     style="display:inline;fill:#ffffff;fill-opacity:1;stroke-width:0.6653524"
     d="M 104.00195,4.1953125 C 79.583434,4.5619925 64.469425,37.576786 79.6875,56.507812 81.532894,60.044303 87.971094,61.95157 85.081593,66.702918 81.442687,84.811103 77.628327,102.88358 73.857422,120.96484 67.933633,116.91046 61.190606,113.4319 56.365234,108.2168 60.114448,89.627039 40.447307,70.518228 22.119141,76.138672 3.0284648,80.396526 -5.8346493,107.25515 7.7617188,121.67188 c 3.9391282,5.16614 10.9736492,6.9477 15.4584042,10.77694 10.086261,28.79491 24.051632,56.97106 25.486059,87.9983 1.609499,15.78367 2.038488,32.3744 8.539912,47.06655 8.318566,10.42647 23.272119,8.53826 34.478515,13.42578 47.541061,11.91565 98.569251,8.528 144.568361,-8.04492 10.03356,-5.08826 11.38348,-17.44248 11.78494,-27.41577 2.90753,-28.52338 5.14884,-58.04572 18.15842,-84.11548 3.70361,-10.00614 6.57636,-20.54216 11.58008,-29.92773 17.81756,-4.52416 27.01022,-28.3284 16.04101,-43.375003 -8.64399,-13.795291 -30.32342,-17.220282 -41.8457,-5.070313 -6.84118,6.404365 -10.57896,16.286174 -8.79688,25.589846 -6.18274,3.94742 -11.86341,8.61087 -17.87304,12.80664 C 221.42129,102.25927 216.283,83.046889 213.81641,63.830078 231.92429,49.686481 228.89676,16.287922 207.20703,7.2109375 187.80196,-2.5754779 161.0605,12.98175 161.08398,35.041016 c -0.47652,7.749065 2.05591,15.343941 5.47852,22.193359 -5.04785,13.394406 -11.74822,26.105489 -16.54883,39.597656 C 144.52002,82.856974 137.28091,69.091778 133.84961,54.675781 146.00837,35.936308 133.00071,5.8766425 110,4.4414062 108.01239,4.1808996 106.00279,4.1802651 104.00195,4.1953125 Z"
     id="path4566"
     inkscape:connector-curvature="0"
     sodipodi:nodetypes="ccccccccccccccccccccccccccc" />
  <path
     style="display:inline;fill:#000000;fill-opacity:1;stroke-width:0.6665436"
     d="m 141.3024,205.18799 c -2.4845,-1.70564 -11.37955,-5.4163 -11.39931,-7.65319 -0.014,-1.68565 4.40744,-3.89861 7.27077,-5.201 4.59916,-2.09193 8.14266,-3.86495 11.66755,-4.79986 2.89389,-0.72464 4.66971,0.40964 7.12421,1.41487 3.41104,1.44962 6.86075,3.29857 10.12053,4.82853 8.61237,4.04218 4.45989,5.44292 -0.62123,8.16954 -4.81601,2.65723 -11.99101,5.72346 -12.63701,6.05673 -4.00221,1.20066 -7.38725,-1.16284 -11.52551,-2.81562 z"
     id="path827"
     inkscape:connector-curvature="0"
     sodipodi:nodetypes="ccsccsccc" />
  <path
     style="display:inline;fill:#00000e;fill-opacity:1;stroke-width:0.6653524"
     d="m 105.29224,14.704872 c -2.84114,0.06175 -6.42555,1.01474 -8.785074,2.104301 -4.670938,2.156911 -9.134677,7.83898 -10.593276,11.553451 -1.305691,3.325073 -2.384897,8.997576 -1.278735,13.578457 1.131929,4.449398 3.124792,8.595611 7.697072,12.88482 1.897631,1.787317 4.090525,2.682856 4.703578,3.412408 0.704923,1.149738 -0.608472,6.994116 -2.29058,13.906179 -1.23669,5.08174 -2.550933,11.908687 -5.944597,28.844602 -2.048563,9.83872 -4.036217,19.68426 -5.844947,27.77816 -0.660398,3.9522 -1.569571,9.13684 -2.186485,9.42176 -0.74413,0.34366 -5.846104,-3.30611 -12.752369,-8.4097 -2.365019,-1.55922 -7.583423,-5.18416 -9.405551,-6.55296 -3.708869,-2.81696 -9.493118,-5.82564 -12.406286,-8.52584 -2.006957,-1.55516 -2.530453,-2.06397 -0.838698,-6.68288 0.8356,-2.10387 0.75745,-5.52458 0.509465,-7.20527 -0.529504,-3.588674 -2.969744,-7.5743 -5.277771,-10.254959 -4.50605,-4.014961 -8.146809,-4.416341 -11.96264,-4.391413 -5.235126,0 -8.115295,1.202063 -11.287194,4.256534 -3.229505,3.164834 -5.619166,8.332296 -5.607735,12.784488 0.03845,4.41597 1.260737,7.07475 2.86391,10.01841 1.893628,3.47698 7.859175,6.77693 10.096183,7.12376 4.654192,0.73285 6.175381,1.04467 7.753784,6.09703 1.254822,3.51417 3.465479,10.03959 4.458671,12.80845 0.99319,2.76886 2.45337,7.00395 4.167973,11.19174 4.049684,11.56377 8.393181,21.8097 11.93722,31.91879 1.241321,5.02115 2.544758,10.69498 3.358096,17.10403 0.579308,5.75543 1.448042,10.90441 2.459107,19.65149 0.730037,6.80125 2.258666,17.5444 3.371013,26.38815 0.883392,5.6255 1.532623,12.78859 2.925217,15.57591 1.953623,3.1925 6.211918,3.45139 10.768779,4.7628 8.714404,2.09421 19.462338,5.48811 28.74528,7.38312 13.64048,2.94328 28.12669,4.06415 41.08843,4.20974 3.39119,-0.11967 13.91644,-0.40677 19.48754,-0.50757 9.66022,-0.46479 18.55401,-1.87112 27.66094,-3.27613 6.85793,-1.12979 13.46898,-2.4883 19.83516,-3.96364 7.18486,-1.85508 13.94628,-4.18775 21.0041,-7.17825 1.92802,-2.39685 2.43797,-6.64824 2.83623,-10.22212 1.8394,-12.39272 2.13245,-16.64085 3.34996,-27.4656 1.21371,-10.531 2.86464,-29.33204 5.9893,-39.41038 1.73681,-6.29678 8.78073,-22.43703 10.7758,-28.65516 2.70639,-7.52846 4.33983,-11.58542 7.09814,-19.43444 0.75942,-2.76862 2.27033,-6.19074 3.31217,-9.52719 1.17747,-2.2488 0.55046,-6.04229 7.14153,-6.52823 4.15766,-0.92356 9.14807,-4.16788 11.50229,-8.49886 0.92436,-1.60488 3.0837,-6.97894 1.93418,-12.784851 -1.74347,-5.619053 -5.50626,-11.718589 -12.36418,-13.24361 -8.3651,-1.860172 -15.49397,0.94813 -19.89182,8.865175 -1.33239,2.665216 -2.42753,5.594936 -1.84418,10.880036 1.48864,5.34089 2.13554,5.34273 0.94855,6.85787 -0.39002,0.73246 -1.93082,1.6412 -4.97412,3.66305 -2.6993,1.7933 -6.38218,4.45844 -9.37785,6.66326 -3.83084,2.83529 -13.95846,9.92805 -16.9758,11.89897 -3.1012,2.13859 -4.50177,3.09725 -4.78235,2.89084 -0.39927,-0.11818 -1.61412,-6.94681 -2.74179,-11.97851 -2.31913,-11.31081 -4.51432,-20.51646 -6.95214,-32.119136 -1.97687,-9.732709 -4.21988,-20.822144 -5.87856,-29.57218 -0.68979,-4.803753 -1.59516,-5.869366 1.26333,-7.135299 2.33029,-1.032008 5.92058,-4.537803 8.22878,-8.481349 1.51848,-2.995215 2.88879,-5.512199 3.11467,-11.887779 -0.0378,-10.8159 -7.41807,-17.524967 -10.89881,-19.371354 -3.93504,-1.94618 -5.03691,-3.068989 -10.78813,-3.058931 -5.8291,0.01021 -8.68807,1.264442 -12.21567,3.544472 -5.48714,3.546545 -9.63219,11.25146 -9.88821,16.755926 -0.26303,5.655044 0.52962,12.325899 5.63857,17.825883 1.30699,1.871174 0.50157,5.36809 0.0896,6.52701 -4.52873,10.119601 -6.68489,15.371387 -11.26351,25.573192 -3.85727,9.644559 -6.87059,17.510335 -10.38838,25.779245 -1.90044,4.60826 -5.03514,12.72373 -5.75523,12.69272 -0.75198,0.11258 -4.28556,-8.51354 -5.44544,-11.71729 -3.90055,-10.01289 -7.90771,-20.348143 -11.19264,-28.032989 -3.45004,-7.862123 -5.76364,-13.500626 -8.97778,-21.861215 -1.21207,-2.789881 -1.94626,-4.368088 -2.41017,-5.800393 -0.71346,-1.755853 -0.52298,-2.960116 0.85549,-4.455231 2.98308,-3.235501 5.01641,-9.131512 5.01641,-12.588547 0,-4.087681 0.0209,-8.043904 -2.25212,-12.399489 -1.75043,-3.354234 -5.64232,-7.771563 -9.77938,-9.92668 -2.62357,-1.366689 -6.72438,-2.070804 -10.48631,-2.070804 z m -0.37566,11.685982 c 4.44312,-0.15329 6.26013,1.059506 8.33131,3.174447 1.80068,1.838712 2.83788,4.253133 2.83788,7.40598 0,3.958882 -1.88685,7.047375 -5.43364,9.248587 -4.54696,2.198551 -10.07277,0.552954 -12.827287,-2.838347 -2.385936,-3.024671 -3.760565,-8.151931 0.379874,-13.683172 1.560967,-1.652237 4.349913,-3.321387 6.711863,-3.307495 z m 93.30748,1.224497 c 3.66576,1.622598 5.81252,5.751311 5.79553,9.557268 -0.008,1.845948 -0.46417,5.421052 -3.21286,7.773182 -2.66484,2.280377 -7.47203,5.054417 -13.62894,0.563566 -1.33153,-0.971218 -3.72004,-3.905086 -3.65827,-8.303095 -0.0489,-3.28668 1.68895,-7.131614 4.71792,-9.002712 2.92533,-1.807076 6.6813,-2.051271 9.98662,-0.588209 z m -8.96602,37.120568 c 0.8286,0.02515 2.96717,8.623569 3.24427,10.291803 3.79634,17.829616 7.35804,34.410488 9.94832,48.042578 2.76492,12.77459 3.63673,19.54351 5.99737,30.75006 0.569,3.2024 1.30362,7.83522 1.63912,8.04675 0.33237,0.40435 3.21028,-2.21108 9.25992,-6.416 9.65794,-7.02202 17.88345,-14.25262 26.08112,-19.65174 2.00824,-1.59788 6.12542,-4.96965 6.82504,-4.50471 1.27093,0.87838 -1.35748,6.58506 -2.65933,9.5174 -4.05663,10.02467 -6.3466,16.51535 -11.36492,28.11847 -1.97996,3.8448 -2.47838,5.8568 -3.80268,6.20568 -2.2046,0.52129 -3.947,0.0141 -14.29344,-2.92086 -7.46565,-2.65064 -13.91422,-4.13408 -21.40246,-5.80166 -18.18118,-4.43252 -37.59844,-5.3919 -54.74886,-5.37794 -12.80049,0.55815 -25.62466,1.79188 -38.13189,4.03932 -12.891779,2.75448 -21.889376,4.81926 -34.117464,8.18618 -2.023245,0.71368 -6.356722,2.3561 -7.381603,1.74879 -2.84781,-4.24704 -5.589178,-12.1434 -7.585306,-16.4783 -1.892506,-4.65996 -3.406511,-8.54538 -6.525115,-16.24181 -2.859377,-7.23064 -4.344839,-11.29449 -3.312356,-11.98064 0.82093,-0.54556 10.456614,6.9695 13.347101,9.15007 3.209967,2.49466 7.939425,5.83852 11.53725,8.78231 3.111531,2.40676 4.854245,3.8131 6.86459,5.45496 5.80193,4.34691 9.254519,7.7828 10.581921,7.60558 1.014733,-0.53946 1.031452,-6.28033 2.448574,-10.37851 1.215128,-7.2542 1.989351,-9.33951 2.705433,-15.34672 3.865121,-19.23376 6.740635,-35.0614 10.851215,-53.000727 2.05745,-10.390384 3.3087,-18.429271 4.99498,-18.429271 1.56663,-0.202586 11.27606,22.807913 15.75842,34.042858 5.51204,13.55998 9.1083,22.78666 15.28248,37.36892 1.3641,3.25358 7.75135,17.8617 8.49359,17.94745 0.56022,0.002 1.37103,-2.12771 3.16397,-5.92473 4.85251,-11.96628 8.55766,-20.0646 12.28048,-29.49514 4.63177,-10.88066 11.02645,-25.876155 15.37519,-36.186198 3.68114,-8.499172 7.67944,-17.259194 8.64507,-17.164223 z M 28.655673,96.095737 c 2.25998,-0.0564 3.514709,0.800513 4.852174,2.008955 2.18451,2.092238 3.454067,5.793408 0.394262,9.486318 -0.999168,1.20591 -3.89139,3.15313 -7.221175,2.08757 -2.22819,-0.71305 -3.322838,-1.71816 -4.538904,-3.98589 -1.139408,-2.12477 -0.594786,-5.32965 1.661001,-7.736513 0.99651,-0.854316 2.416534,-1.799658 4.852642,-1.86044 z m 241.949747,0.42593 c 4.63551,0.08602 7.19286,3.945243 7.13292,6.766363 -0.0224,4.33335 -2.99093,6.44071 -5.14852,7.04497 -2.71585,0.54812 -4.60649,0.0337 -6.793,-1.7986 -2.28083,-2.23887 -2.63975,-4.83097 -1.64406,-7.73059 1.04278,-2.134003 3.23194,-4.213264 6.45266,-4.282143 z M 151.16045,173.68422 c 8.82666,-0.005 17.65583,0.38422 25.23999,1.31353 9.68803,1.23126 19.80275,2.3508 29.9256,5.43198 8.2179,1.62573 22.80627,5.57316 26.02056,7.65879 1.95859,1.88091 -0.44618,11.83866 -2.16806,12.73303 -1.90421,0.76869 -3.18067,1.31097 -9.44703,1.95467 -4.2822,0.88912 -10.26179,0.59272 -11.28006,3.88198 -0.61467,1.98552 3.4997,4.74679 8.32131,8.10944 3.76462,2.46266 7.52236,5.1523 10.23458,7.44988 1.3008,1.15271 0.25686,3.48864 0.25686,7.28284 0,3.20031 -0.31689,4.81769 -1.09973,5.61248 -1.3098,1.32974 -1.17232,2.86628 -7.63506,-0.39529 -4.21141,-2.10354 -7.1146,-3.56741 -13.87551,-5.86272 -7.4493,-2.06946 -17.32122,-4.3501 -23.4272,-5.11668 -3.39118,-0.42574 -20.28738,-1.68197 -29.51894,-1.70266 -22.30472,0.26255 -34.13935,2.00173 -44.29995,4.28357 -9.300405,2.11 -19.277956,4.95282 -26.329381,6.99485 -3.085385,1.40336 -6.326145,2.3972 -8.950118,2.08258 -1.478272,-1.06505 -1.083592,-5.58458 -1.525782,-7.35359 -0.250661,-2.6724 -0.996408,-5.26738 1.782641,-7.24439 3.204731,-2.09317 3.945002,-2.86909 8.113027,-5.87193 2.699787,-2.11804 9.312472,-6.16904 9.079214,-8.49113 -0.360517,-2.93778 -6.466494,-2.96436 -10.285593,-3.83122 -5.811183,-1.01667 -10.791789,-1.10655 -12.078707,-3.18643 -1.133455,-1.62214 -1.398397,-3.4854 -1.627295,-7.0752 -0.528054,-3.44696 2.955832,-5.61372 7.324372,-6.52456 14.830137,-3.87751 33.373282,-8.96601 45.871762,-10.46807 8.68592,-1.00181 20.02992,-1.65942 31.3785,-1.66575 z m 0.43374,60.78054 c 10.12193,0.0106 23.43633,0.66718 32.3507,1.85439 10.26348,1.70276 17.02934,3.14722 28.1116,7.80118 5.16632,2.41173 11.71514,4.67965 11.45755,7.08269 -0.35408,4.17168 -17.74285,7.39343 -22.07664,8.48337 -12.00578,2.59135 -21.08962,3.92504 -43.98926,5.32947 -13.85818,0.3427 -28.92035,-0.88067 -41.19917,-2.58552 -9.54857,-1.42276 -20.6167,-3.70545 -30.790941,-6.33999 -6.200271,-2.31532 -9.530717,-3.58673 -8.588127,-6.64632 0.595712,-2.03368 7.298953,-4.58351 14.66218,-7.0925 4.21196,-1.49567 10.907848,-2.89517 15.562348,-3.98672 5.05972,-1.36596 20.19704,-3.55873 40.12251,-4.24973 1.28069,-0.0444 2.93126,0.34815 4.37725,0.34965 z"
     id="path822"
     inkscape:connector-curvature="0"
     sodipodi:nodetypes="cssccccccsccccsccccscccccccccccccccccccccccccscccsccccccsccccsscccccccccssscscssccccscsscsscscccccccccccccccccccccccccccccccccscssscscccccccccccccccscccsccccccccccccccccccccccccccccc" />
</svg>
