<?xml version="1.0" encoding="UTF-8" standalone="no"?>
<svg
   xmlns:dc="http://purl.org/dc/elements/1.1/"
   xmlns:cc="http://creativecommons.org/ns#"
   xmlns:rdf="http://www.w3.org/1999/02/22-rdf-syntax-ns#"
   xmlns:svg="http://www.w3.org/2000/svg"
   xmlns="http://www.w3.org/2000/svg"
   xmlns:sodipodi="http://sodipodi.sourceforge.net/DTD/sodipodi-0.dtd"
   xmlns:inkscape="http://www.inkscape.org/namespaces/inkscape"
   version="1.0"
   width="300.000000pt"
   height="300.000000pt"
   viewBox="0 0 300.000000 300.000000"
   preserveAspectRatio="xMidYMid meet"
   id="svg2"
   inkscape:version="0.92.5 (2060ec1f9f, 2020-04-08)"
   sodipodi:docname="wr.svg">
  <defs
     id="defs12" />
  <sodipodi:namedview
     pagecolor="#ffffff"
     bordercolor="#666666"
     borderopacity="1"
     objecttolerance="10"
     gridtolerance="10"
     guidetolerance="10"
     inkscape:pageopacity="0"
     inkscape:pageshadow="2"
     inkscape:window-width="1920"
     inkscape:window-height="1017"
     id="namedview10"
     showgrid="false"
     inkscape:zoom="6.5478672"
     inkscape:cx="185.84612"
     inkscape:cy="27.724618"
     inkscape:window-x="-8"
     inkscape:window-y="-8"
     inkscape:window-maximized="1"
     inkscape:current-layer="svg2"
     inkscape:pagecheckerboard="true" />
  <metadata
     id="metadata4">
Created by potrace 1.12, written by Peter Selinger 2001-2015
<rdf:RDF>
  <cc:Work
     rdf:about="">
    <dc:format>image/svg+xml</dc:format>
    <dc:type
       rdf:resource="http://purl.org/dc/dcmitype/StillImage" />
    <dc:title />
  </cc:Work>
</rdf:RDF>
</metadata>
  <path
     style="fill:#ffffff;fill-opacity:1;stroke-width:0.73510122"
     d="M 148.93613,0.34345553 C 138.07507,1.0370582 123.71928,-1.6623984 116.18106,8.5076151 112.74117,14.93205 114.5546,22.606269 113.94365,29.370213 110.5403,29.118114 104.19823,31.921123 105.97022,26.390428 106.79553,17.605705 104.25077,5.0118557 93.700401,3.8400369 81.555648,2.0741936 69.33692,5.0474547 57.266222,5.8744121 49.144017,7.9028501 44.34497,16.732727 46.255531,24.729195 c 0.612039,14.278206 -0.886292,28.703169 0.330222,42.898342 3.457158,13.442961 21.476261,17.379067 22.07871,32.195217 -0.730003,29.674186 1.547893,59.845976 -1.043847,89.254096 -8.730488,6.93477 -22.094562,12.50918 -23.153321,25.24512 -0.378936,3.82306 3.447659,10.07027 -2.438378,10.99629 -9.820253,5.26708 -12.420926,17.6649 -10.44463,27.825 -0.0616,10.4737 -2.5097,23.57319 5.951368,31.61894 10.389764,6.83025 23.088641,1.74589 34.455176,3.37824 62.870629,-0.19828 125.847159,1.76798 188.647259,-1.13263 9.83029,-4.13448 8.87165,-16.71182 8.09033,-25.43995 0.15651,-11.32033 2.56172,-25.8975 -7.63711,-33.91991 -3.4027,-1.37627 -8.31696,-3.93025 -5.61709,-8.26055 1.34737,-11.34181 -6.84043,-21.41834 -16.82995,-25.71777 -4.18211,-1.98783 -8.44616,-5.84798 -6.50368,-10.92731 1.0169,-30.38919 -2.81966,-61.27821 1.94808,-91.282657 8.09306,-8.660212 20.78976,-16.872972 19.92081,-30.328923 -0.41859,-16.39471 2.98236,-33.797899 -2.65323,-49.546953 -8.05007,-9.6149168 -22.02902,-5.5005859 -32.64024,-7.9016601 -8.88803,-1.5582998 -21.04386,0.827949 -23.16767,11.1316411 -1.26583,4.781479 -0.29866,9.756829 -0.46757,14.615917 -2.76918,-0.757708 -9.66237,2.119492 -8.45743,-2.596289 0.98867,-9.369519 -1.17172,-21.9755421 -11.60127,-24.9641603 -8.44768,-2.73840317 -17.43176,-0.712382 -26.08594,-1.52578017 z"
     id="path827"
     inkscape:connector-curvature="0"
     sodipodi:nodetypes="cccccccccccccccccccccccccccccc" />
  <path
     sodipodi:nodetypes="scsscsccccccccccscccccscccccccccccsccccccscccsccscsccscsssccccscccccscssccsccccscscscszccccccccsssccccccccc"
     inkscape:connector-curvature="0"
     id="path842"
     d="m 154.00106,11.330004 c -12.10178,-0.03946 -25.60822,0.582294 -27.26566,1.498095 -1.9458,0.862786 -1.3044,1.163855 -1.63036,12.793799 -0.43571,15.544864 2.00905,14.178721 -7.04137,14.619506 -16.11078,0.784649 -21.904223,1.201388 -22.783294,0.52295 -0.659106,-0.508687 -0.504851,-4.00836 -0.504851,-12.886084 0,-9.855999 -0.205536,-12.364462 -1.073582,-13.110645 -1.93766,-1.665619 -35.616456,1.521807 -36.270512,2.531689 -0.493529,0.552417 0.01458,10.994228 -0.126757,24.330982 l -0.256861,24.247925 6.152344,6.158494 c 3.384131,3.386723 8.255587,8.637584 10.825051,11.669459 6.59469,7.781524 5.078311,3.870664 5.616725,17.677486 0.06827,7.37994 0.05701,67.56074 0.22302,88.44456 -0.119078,2.88279 -0.218996,4.27792 -2.260621,5.5153 -3.976804,3.01758 -11.078389,8.34281 -15.430078,11.41106 -7.372202,5.2696 -6.209406,2.93458 -6.103125,13.92584 0.08739,9.03725 0.516952,8.70656 -1.724195,10.16521 -3.170604,1.80043 -5.036824,3.30154 -8.176464,5.42329 -4.170099,3.32533 -3.536121,0.7422 -3.779077,14.7241 0.264273,23.51658 -0.210514,23.06687 1.144336,24.78163 1.181521,1.4954 2.370178,1.22841 9.651488,1.28584 4.774703,0.0225 52.179583,0.40602 105.927973,0.34543 85.14289,-0.096 97.21244,0.0936 98.09023,-0.85433 1.09427,-1.33778 0.64948,-5.28162 0.61336,-18.14346 -0.0291,-10.33437 0.12556,-17.46227 -0.41375,-18.8108 -0.57686,-1.44247 -2.81013,-3.02835 -6.83372,-5.60478 -8.42717,-5.39618 -6.2191,-2.19849 -6.55378,-14.7164 0.0735,-7.1293 0.97407,-7.19068 -2.08872,-9.61304 -1.72748,-1.55809 -5.81378,-4.42045 -6.80911,-4.94342 -4.21338,-3.28246 -8.06712,-5.79529 -12.27392,-9.15468 -1.55913,-1.0529 -1.92233,-1.22298 -1.80878,-8.50716 0.0524,-20.21638 -0.11334,-43.37832 -0.0816,-64.59191 0.0286,-20.13666 -0.10782,-31.316993 0.39684,-32.322876 0.42323,-0.843608 2.41545,-3.690909 5.44635,-6.836791 8.21671,-8.528405 15.56851,-15.59354 16.2345,-17.412671 0.32421,-0.885637 0.30212,-13.457708 0.19534,-25.88291 0.35516,-23.321619 0.50887,-22.520086 -3.09001,-23.234326 -5.99533,-0.95105 -16.97309,-1.693993 -24.07566,-2.014893 -10.17403,-0.180821 -10.07926,-3.54335 -9.99295,13.18601 0.14351,15.483515 -0.0849,13.278273 -5.89086,12.969141 -8.05548,-0.659974 -19.88085,-0.768129 -21.99464,-0.839795 -3.05262,-0.103499 -2.6401,-0.05262 -2.73932,-7.478174 -0.0477,-3.574876 0.0368,-9.49209 -0.0231,-12.718432 -0.096,-5.186454 -0.53128,-6.111948 -1.96875,-7.0875 -1.47632,-1.001913 -10.03969,-1.432032 -19.45216,-1.462719 z m -4.95363,11.245277 c 6.65241,-6.79e-4 14.18504,0.0157 14.89708,0.752655 0.39072,0.404403 -0.1295,8.75217 -0.0747,15.841198 0.0612,7.911288 -5e-4,10.039538 1.04752,11.077671 1.1636,0.597923 28.60335,1.008868 42.82641,2.369865 5.06076,0.484262 8.55746,1.159118 9.43578,0.0079 0.88401,-0.997954 1.00904,-6.583556 0.98772,-11.708632 0.23061,-7.1931 -0.1641,-12.832171 0.69442,-13.697181 0.84732,-0.853723 10.76887,0.319726 11.31083,0.770318 0.78599,0.65349 0.52946,4.605452 0.41956,15.662539 -0.15869,15.964603 -0.59364,15.82686 -3.29561,18.878856 -2.75332,3.109985 -7.35289,8.792039 -10.96283,11.979768 -6.70982,5.925071 -6.48691,6.675394 -15.97006,5.201579 -6.64988,-1.033491 -28.90493,-2.676373 -48.13788,-2.625367 -15.31889,0.04063 -30.39404,0.192347 -47.98064,2.174154 -3.97411,0.447858 -9.816698,1.281278 -11.106261,1.430273 -2.207158,0.255016 -4.003721,-1.097476 -9.424548,-6.30319 C 79.897807,70.722718 75.71141,66.21275 73.544658,64.156144 69.251479,59.773051 69.83195,60.444176 69.917792,55.295833 c -0.08394,-1.905769 -0.0202,-16.587503 0.121632,-23.271467 0.408211,-4.528565 -1.534862,-4.95144 8.265325,-5.452264 3.293979,-0.124534 3.769779,0.0088 3.972229,0.652641 0.161666,0.514151 0.276941,8.029726 0.444095,13.304127 0.242479,7.651151 -0.252181,11.107016 0.70671,12.099477 1.338207,1.385039 9.347697,-1.012197 33.070997,-1.520331 14.22606,-0.30471 18.54052,-0.169583 19.21695,-0.963762 0.65035,-0.763545 0.56964,-2.255715 0.50082,-13.069133 0.0761,-10.248946 -0.12939,-13.009336 0.62588,-13.775123 0.67448,-0.676208 9.98751,-0.724465 12.20498,-0.724692 z m 28.94771,70.002306 c 11.10466,0.69195 28.23978,3.141843 28.95366,4.148981 0.92211,1.02567 0.83036,22.059572 0.94524,28.000362 0.28588,14.78662 0.28844,35.52922 0.006,46.09489 -0.0786,6.36909 0.71341,17.95687 -0.29672,18.85484 -1.2691,1.12818 -41.10328,0.35586 -56.47557,0.35586 -27.71894,0.18005 -56.91728,0.82773 -58.013676,-0.20706 -1.04184,-0.98331 -1.255016,-5.60851 -1.118581,-8.89505 -0.04197,-3.90756 0.108423,-19.52024 0.190708,-36.0652 0.126229,-25.38055 0.277177,-44.58982 0.551196,-46.511752 0.731178,-2.688868 4.571192,-3.717565 16.314143,-4.812139 14.8522,-1.384393 32.3391,-2.058273 37.97634,-2.027235 5.63724,0.03108 21.41002,0.367406 30.96696,1.063503 z M 150.91719,205.30109 c 53.69377,7.9e-4 59.8462,-0.5289 63.81918,1.42393 4.43033,2.17761 9.63735,6.56096 14.61953,10.72829 1.90425,1.48187 1.38069,2.59026 1.4738,11.83968 0.23539,10.04006 -0.13128,8.88107 3.45516,11.15312 5.20717,3.49123 7.2327,4.48939 10.90008,7.14231 0.0124,0.3085 0.12101,5.04097 0.15619,8.5913 0.079,3.88052 0.41992,6.2787 -0.1878,6.67 -1.20336,0.77489 -189.304776,0.96769 -190.041688,0.1684 -0.332118,-0.36023 -0.08044,-4.51602 -0.124836,-8.28025 -0.03869,-3.2805 0.205496,-6.03088 0.598862,-6.76913 0.671312,-1.50676 4.816781,-3.90766 8.739511,-6.46689 3.544278,-2.13707 5.436399,-1.40509 5.135559,-7.10902 -0.0989,-3.28112 0.0537,-9.85716 0.07999,-13.42193 -0.06113,-3.69091 0.381268,-3.33061 5.966133,-7.51628 2.781875,-1.92333 7.375457,-4.97734 8.483163,-5.75096 5.264571,-3.67674 8.272593,-2.40362 66.927166,-2.40258 z"
     style="display:inline;fill:#000000;fill-opacity:1;stroke-width:0.73510122" />
</svg>
